<mxfile host="www.draw.io" modified="2020-04-14T21:54:41.059Z" agent="5.0 (Macintosh; Intel Mac OS X 10_15_1) AppleWebKit/537.36 (KHTML, like Gecko) Chrome/80.0.3987.149 Safari/537.36" etag="zaAZ5ZV7gARdXJ7gMgcQ" version="12.9.12" type="github" pages="14">
  <diagram id="QteX8RH3kvNgPQet8G1u" name="01 - setup">
    <mxGraphModel dx="699" dy="344" grid="1" gridSize="10" guides="1" tooltips="1" connect="1" arrows="1" fold="1" page="1" pageScale="1" pageWidth="1920" pageHeight="1200" math="0" shadow="0">
      <root>
        <mxCell id="0" />
        <mxCell id="1" parent="0" />
        <mxCell id="7MWPKARtyb4ottqCM83R-3" style="edgeStyle=orthogonalEdgeStyle;rounded=0;orthogonalLoop=1;jettySize=auto;html=1;exitX=0.5;exitY=1;exitDx=0;exitDy=0;fontSize=16;" edge="1" parent="1" source="7MWPKARtyb4ottqCM83R-1" target="7MWPKARtyb4ottqCM83R-2">
          <mxGeometry relative="1" as="geometry" />
        </mxCell>
        <mxCell id="7MWPKARtyb4ottqCM83R-1" value="Wow, this is a lot of boilerplate to publish/receive a message!" style="rounded=0;whiteSpace=wrap;html=1;fontSize=16;fillColor=#dae8fc;strokeColor=#6c8ebf;" vertex="1" parent="1">
          <mxGeometry x="550" y="230" width="420" height="60" as="geometry" />
        </mxCell>
        <mxCell id="7MWPKARtyb4ottqCM83R-5" style="edgeStyle=orthogonalEdgeStyle;rounded=0;orthogonalLoop=1;jettySize=auto;html=1;exitX=0.5;exitY=1;exitDx=0;exitDy=0;fontSize=16;" edge="1" parent="1" source="7MWPKARtyb4ottqCM83R-2" target="7MWPKARtyb4ottqCM83R-4">
          <mxGeometry relative="1" as="geometry" />
        </mxCell>
        <mxCell id="7MWPKARtyb4ottqCM83R-2" value="Let&#39;s try to refactor this to make it much easier to publish/receive" style="rounded=0;whiteSpace=wrap;html=1;fontSize=16;fillColor=#dae8fc;strokeColor=#6c8ebf;" vertex="1" parent="1">
          <mxGeometry x="550" y="320" width="420" height="60" as="geometry" />
        </mxCell>
        <mxCell id="7MWPKARtyb4ottqCM83R-4" value="We&#39;ll write out an initial implementation in this test project, then move it to our common module" style="rounded=0;whiteSpace=wrap;html=1;fontSize=16;fillColor=#dae8fc;strokeColor=#6c8ebf;" vertex="1" parent="1">
          <mxGeometry x="550" y="410" width="420" height="60" as="geometry" />
        </mxCell>
      </root>
    </mxGraphModel>
  </diagram>
  <diagram id="VsXihxTFdKHMze-ETW4r" name="02 - listener">
    <mxGraphModel dx="858" dy="422" grid="1" gridSize="10" guides="1" tooltips="1" connect="1" arrows="1" fold="1" page="1" pageScale="1" pageWidth="1920" pageHeight="1200" math="0" shadow="0">
      <root>
        <mxCell id="lOOHaBq7GTxBkuqLtd3i-0" />
        <mxCell id="lOOHaBq7GTxBkuqLtd3i-1" parent="lOOHaBq7GTxBkuqLtd3i-0" />
        <mxCell id="lOOHaBq7GTxBkuqLtd3i-2" value="Class Listener" style="rounded=0;whiteSpace=wrap;html=1;fontSize=23;fillColor=#dae8fc;strokeColor=#6c8ebf;fontStyle=1" vertex="1" parent="lOOHaBq7GTxBkuqLtd3i-1">
          <mxGeometry x="550" y="210" width="600" height="40" as="geometry" />
        </mxCell>
        <mxCell id="lOOHaBq7GTxBkuqLtd3i-3" value="Property" style="rounded=0;whiteSpace=wrap;html=1;fontSize=15;fontStyle=2;fillColor=#d5e8d4;strokeColor=#82b366;" vertex="1" parent="lOOHaBq7GTxBkuqLtd3i-1">
          <mxGeometry x="550" y="250" width="160" height="40" as="geometry" />
        </mxCell>
        <mxCell id="lOOHaBq7GTxBkuqLtd3i-4" value="Type" style="rounded=0;whiteSpace=wrap;html=1;fontSize=15;fontStyle=2;fillColor=#d5e8d4;strokeColor=#82b366;" vertex="1" parent="lOOHaBq7GTxBkuqLtd3i-1">
          <mxGeometry x="710" y="250" width="180" height="40" as="geometry" />
        </mxCell>
        <mxCell id="lOOHaBq7GTxBkuqLtd3i-5" value="subject" style="rounded=0;whiteSpace=wrap;html=1;fontSize=15;fontStyle=1;" vertex="1" parent="lOOHaBq7GTxBkuqLtd3i-1">
          <mxGeometry x="550" y="290" width="160" height="40" as="geometry" />
        </mxCell>
        <mxCell id="lOOHaBq7GTxBkuqLtd3i-7" value="Goal" style="rounded=0;whiteSpace=wrap;html=1;fontSize=15;fontStyle=2;fillColor=#d5e8d4;strokeColor=#82b366;" vertex="1" parent="lOOHaBq7GTxBkuqLtd3i-1">
          <mxGeometry x="890" y="250" width="260" height="40" as="geometry" />
        </mxCell>
        <mxCell id="lOOHaBq7GTxBkuqLtd3i-8" value="string" style="rounded=0;whiteSpace=wrap;html=1;fontSize=15;fontStyle=0;" vertex="1" parent="lOOHaBq7GTxBkuqLtd3i-1">
          <mxGeometry x="710" y="290" width="180" height="40" as="geometry" />
        </mxCell>
        <mxCell id="lOOHaBq7GTxBkuqLtd3i-6" value="Name of the channel this listener is going to listen to" style="rounded=0;whiteSpace=wrap;html=1;fontSize=15;fontStyle=0;" vertex="1" parent="lOOHaBq7GTxBkuqLtd3i-1">
          <mxGeometry x="890" y="290" width="260" height="40" as="geometry" />
        </mxCell>
        <mxCell id="lOOHaBq7GTxBkuqLtd3i-9" value="client" style="rounded=0;whiteSpace=wrap;html=1;fontSize=15;fontStyle=1;" vertex="1" parent="lOOHaBq7GTxBkuqLtd3i-1">
          <mxGeometry x="550" y="370" width="160" height="40" as="geometry" />
        </mxCell>
        <mxCell id="lOOHaBq7GTxBkuqLtd3i-10" value="Stan" style="rounded=0;whiteSpace=wrap;html=1;fontSize=15;fontStyle=0;" vertex="1" parent="lOOHaBq7GTxBkuqLtd3i-1">
          <mxGeometry x="710" y="370" width="180" height="40" as="geometry" />
        </mxCell>
        <mxCell id="lOOHaBq7GTxBkuqLtd3i-11" value="Pre-initialized NATS client" style="rounded=0;whiteSpace=wrap;html=1;fontSize=15;fontStyle=0;" vertex="1" parent="lOOHaBq7GTxBkuqLtd3i-1">
          <mxGeometry x="890" y="370" width="260" height="40" as="geometry" />
        </mxCell>
        <mxCell id="lOOHaBq7GTxBkuqLtd3i-12" value="queueGroupName" style="rounded=0;whiteSpace=wrap;html=1;fontSize=15;fontStyle=1;" vertex="1" parent="lOOHaBq7GTxBkuqLtd3i-1">
          <mxGeometry x="550" y="410" width="160" height="40" as="geometry" />
        </mxCell>
        <mxCell id="lOOHaBq7GTxBkuqLtd3i-13" value="string" style="rounded=0;whiteSpace=wrap;html=1;fontSize=15;fontStyle=0;" vertex="1" parent="lOOHaBq7GTxBkuqLtd3i-1">
          <mxGeometry x="710" y="410" width="180" height="40" as="geometry" />
        </mxCell>
        <mxCell id="lOOHaBq7GTxBkuqLtd3i-14" value="Name of the queue group this listener will join" style="rounded=0;whiteSpace=wrap;html=1;fontSize=15;fontStyle=0;" vertex="1" parent="lOOHaBq7GTxBkuqLtd3i-1">
          <mxGeometry x="890" y="410" width="260" height="40" as="geometry" />
        </mxCell>
        <mxCell id="lOOHaBq7GTxBkuqLtd3i-15" value="ackWait" style="rounded=0;whiteSpace=wrap;html=1;fontSize=15;fontStyle=1;" vertex="1" parent="lOOHaBq7GTxBkuqLtd3i-1">
          <mxGeometry x="550" y="450" width="160" height="40" as="geometry" />
        </mxCell>
        <mxCell id="lOOHaBq7GTxBkuqLtd3i-16" value="number" style="rounded=0;whiteSpace=wrap;html=1;fontSize=15;fontStyle=0;" vertex="1" parent="lOOHaBq7GTxBkuqLtd3i-1">
          <mxGeometry x="710" y="450" width="180" height="40" as="geometry" />
        </mxCell>
        <mxCell id="lOOHaBq7GTxBkuqLtd3i-17" value="Number of seconds this listener has to ack a message" style="rounded=0;whiteSpace=wrap;html=1;fontSize=15;fontStyle=0;" vertex="1" parent="lOOHaBq7GTxBkuqLtd3i-1">
          <mxGeometry x="890" y="450" width="260" height="40" as="geometry" />
        </mxCell>
        <mxCell id="lOOHaBq7GTxBkuqLtd3i-18" value="subscriptionOptions" style="rounded=0;whiteSpace=wrap;html=1;fontSize=15;fontStyle=1;" vertex="1" parent="lOOHaBq7GTxBkuqLtd3i-1">
          <mxGeometry x="550" y="490" width="160" height="40" as="geometry" />
        </mxCell>
        <mxCell id="lOOHaBq7GTxBkuqLtd3i-19" value="SubscriptionOptions" style="rounded=0;whiteSpace=wrap;html=1;fontSize=15;fontStyle=0;" vertex="1" parent="lOOHaBq7GTxBkuqLtd3i-1">
          <mxGeometry x="710" y="490" width="180" height="40" as="geometry" />
        </mxCell>
        <mxCell id="lOOHaBq7GTxBkuqLtd3i-20" value="Default subscription options" style="rounded=0;whiteSpace=wrap;html=1;fontSize=15;fontStyle=0;" vertex="1" parent="lOOHaBq7GTxBkuqLtd3i-1">
          <mxGeometry x="890" y="490" width="260" height="40" as="geometry" />
        </mxCell>
        <mxCell id="lOOHaBq7GTxBkuqLtd3i-21" value="listen" style="rounded=0;whiteSpace=wrap;html=1;fontSize=15;fontStyle=1;" vertex="1" parent="lOOHaBq7GTxBkuqLtd3i-1">
          <mxGeometry x="550" y="530" width="160" height="40" as="geometry" />
        </mxCell>
        <mxCell id="lOOHaBq7GTxBkuqLtd3i-22" value="() =&amp;gt; void" style="rounded=0;whiteSpace=wrap;html=1;fontSize=15;fontStyle=0;" vertex="1" parent="lOOHaBq7GTxBkuqLtd3i-1">
          <mxGeometry x="710" y="530" width="180" height="40" as="geometry" />
        </mxCell>
        <mxCell id="lOOHaBq7GTxBkuqLtd3i-23" value="Code to set up the subscription" style="rounded=0;whiteSpace=wrap;html=1;fontSize=15;fontStyle=0;" vertex="1" parent="lOOHaBq7GTxBkuqLtd3i-1">
          <mxGeometry x="890" y="530" width="260" height="40" as="geometry" />
        </mxCell>
        <mxCell id="lOOHaBq7GTxBkuqLtd3i-24" value="parseMessage" style="rounded=0;whiteSpace=wrap;html=1;fontSize=15;fontStyle=1;" vertex="1" parent="lOOHaBq7GTxBkuqLtd3i-1">
          <mxGeometry x="550" y="570" width="160" height="40" as="geometry" />
        </mxCell>
        <mxCell id="lOOHaBq7GTxBkuqLtd3i-25" value="(msg: Message) =&amp;gt; any" style="rounded=0;whiteSpace=wrap;html=1;fontSize=15;fontStyle=0;" vertex="1" parent="lOOHaBq7GTxBkuqLtd3i-1">
          <mxGeometry x="710" y="570" width="180" height="40" as="geometry" />
        </mxCell>
        <mxCell id="lOOHaBq7GTxBkuqLtd3i-26" value="Helper function to parse a message" style="rounded=0;whiteSpace=wrap;html=1;fontSize=15;fontStyle=0;" vertex="1" parent="lOOHaBq7GTxBkuqLtd3i-1">
          <mxGeometry x="890" y="570" width="260" height="40" as="geometry" />
        </mxCell>
        <mxCell id="lOOHaBq7GTxBkuqLtd3i-27" value="abstract" style="rounded=0;whiteSpace=wrap;html=1;fontSize=15;fillColor=#f8cecc;strokeColor=#b85450;" vertex="1" parent="lOOHaBq7GTxBkuqLtd3i-1">
          <mxGeometry x="480" y="295" width="70" height="30" as="geometry" />
        </mxCell>
        <mxCell id="lOOHaBq7GTxBkuqLtd3i-28" value="abstract" style="rounded=0;whiteSpace=wrap;html=1;fontSize=15;fillColor=#f8cecc;strokeColor=#b85450;" vertex="1" parent="lOOHaBq7GTxBkuqLtd3i-1">
          <mxGeometry x="480" y="335" width="70" height="30" as="geometry" />
        </mxCell>
        <mxCell id="lOOHaBq7GTxBkuqLtd3i-33" value="onMessage" style="rounded=0;whiteSpace=wrap;html=1;fontSize=15;fontStyle=1;" vertex="1" parent="lOOHaBq7GTxBkuqLtd3i-1">
          <mxGeometry x="550" y="330" width="160" height="40" as="geometry" />
        </mxCell>
        <mxCell id="lOOHaBq7GTxBkuqLtd3i-34" value="(event: EventData) =&amp;gt; void" style="rounded=0;whiteSpace=wrap;html=1;fontSize=15;fontStyle=0;" vertex="1" parent="lOOHaBq7GTxBkuqLtd3i-1">
          <mxGeometry x="710" y="330" width="180" height="40" as="geometry" />
        </mxCell>
        <mxCell id="lOOHaBq7GTxBkuqLtd3i-35" value="Function to run when a message is received" style="rounded=0;whiteSpace=wrap;html=1;fontSize=15;fontStyle=0;" vertex="1" parent="lOOHaBq7GTxBkuqLtd3i-1">
          <mxGeometry x="890" y="330" width="260" height="40" as="geometry" />
        </mxCell>
        <mxCell id="G-D4DQLbAHak-NqeCFaw-0" value="abstract" style="rounded=0;whiteSpace=wrap;html=1;fontSize=15;fillColor=#f8cecc;strokeColor=#b85450;" vertex="1" parent="lOOHaBq7GTxBkuqLtd3i-1">
          <mxGeometry x="480" y="415" width="70" height="30" as="geometry" />
        </mxCell>
      </root>
    </mxGraphModel>
  </diagram>
  <diagram id="OTrysx6zKcfBNWvZi5ih" name="03 - listener">
    <mxGraphModel dx="715" dy="352" grid="1" gridSize="10" guides="1" tooltips="1" connect="1" arrows="1" fold="1" page="1" pageScale="1" pageWidth="1920" pageHeight="1200" math="0" shadow="0">
      <root>
        <mxCell id="QcVjSnfPmGpWH55wYKSw-0" />
        <mxCell id="QcVjSnfPmGpWH55wYKSw-1" parent="QcVjSnfPmGpWH55wYKSw-0" />
        <mxCell id="MQGSZO91x9gCo9jr3GJ0-3" style="edgeStyle=orthogonalEdgeStyle;rounded=0;orthogonalLoop=1;jettySize=auto;html=1;exitX=0.5;exitY=1;exitDx=0;exitDy=0;fontSize=15;" edge="1" parent="QcVjSnfPmGpWH55wYKSw-1" source="MQGSZO91x9gCo9jr3GJ0-0" target="MQGSZO91x9gCo9jr3GJ0-1">
          <mxGeometry relative="1" as="geometry" />
        </mxCell>
        <mxCell id="MQGSZO91x9gCo9jr3GJ0-4" style="edgeStyle=orthogonalEdgeStyle;rounded=0;orthogonalLoop=1;jettySize=auto;html=1;exitX=0.5;exitY=1;exitDx=0;exitDy=0;fontSize=15;" edge="1" parent="QcVjSnfPmGpWH55wYKSw-1" source="MQGSZO91x9gCo9jr3GJ0-0" target="MQGSZO91x9gCo9jr3GJ0-2">
          <mxGeometry relative="1" as="geometry" />
        </mxCell>
        <mxCell id="MQGSZO91x9gCo9jr3GJ0-0" value="Class Listener" style="rounded=0;whiteSpace=wrap;html=1;fontSize=23;fillColor=#dae8fc;strokeColor=#6c8ebf;fontStyle=1" vertex="1" parent="QcVjSnfPmGpWH55wYKSw-1">
          <mxGeometry x="640" y="220" width="260" height="60" as="geometry" />
        </mxCell>
        <mxCell id="MQGSZO91x9gCo9jr3GJ0-1" value="Class TicketCreatedListener" style="rounded=0;whiteSpace=wrap;html=1;fontSize=23;fillColor=#dae8fc;strokeColor=#6c8ebf;fontStyle=1" vertex="1" parent="QcVjSnfPmGpWH55wYKSw-1">
          <mxGeometry x="490" y="360" width="260" height="60" as="geometry" />
        </mxCell>
        <mxCell id="MQGSZO91x9gCo9jr3GJ0-2" value="Class OrderUpdatedListener" style="rounded=0;whiteSpace=wrap;html=1;fontSize=23;fillColor=#dae8fc;strokeColor=#6c8ebf;fontStyle=1" vertex="1" parent="QcVjSnfPmGpWH55wYKSw-1">
          <mxGeometry x="790" y="360" width="260" height="60" as="geometry" />
        </mxCell>
        <mxCell id="MQGSZO91x9gCo9jr3GJ0-5" value="Listens specifically for &#39;ticket:created&#39; events" style="text;html=1;strokeColor=none;fillColor=none;align=center;verticalAlign=middle;whiteSpace=wrap;rounded=0;fontSize=15;fontStyle=2" vertex="1" parent="QcVjSnfPmGpWH55wYKSw-1">
          <mxGeometry x="530" y="430" width="180" height="30" as="geometry" />
        </mxCell>
        <mxCell id="MQGSZO91x9gCo9jr3GJ0-6" value="Listens specifically for &#39;order:updated&#39; events" style="text;html=1;strokeColor=none;fillColor=none;align=center;verticalAlign=middle;whiteSpace=wrap;rounded=0;fontSize=15;fontStyle=2" vertex="1" parent="QcVjSnfPmGpWH55wYKSw-1">
          <mxGeometry x="830" y="430" width="180" height="30" as="geometry" />
        </mxCell>
      </root>
    </mxGraphModel>
  </diagram>
  <diagram name="04 - list" id="5O3aS18tiZpEUM9Trbj3">
    <mxGraphModel dx="858" dy="422" grid="1" gridSize="10" guides="1" tooltips="1" connect="1" arrows="1" fold="1" page="1" pageScale="1" pageWidth="1920" pageHeight="1200" math="0" shadow="0">
      <root>
        <mxCell id="uh1fHdNv8ncasZD0z1BY-0" />
        <mxCell id="uh1fHdNv8ncasZD0z1BY-1" parent="uh1fHdNv8ncasZD0z1BY-0" />
        <mxCell id="uh1fHdNv8ncasZD0z1BY-11" value="" style="rounded=0;whiteSpace=wrap;html=1;fontSize=15;fillColor=#f5f5f5;strokeColor=#666666;fontColor=#333333;" vertex="1" parent="uh1fHdNv8ncasZD0z1BY-1">
          <mxGeometry x="440" y="340" width="330" height="120" as="geometry" />
        </mxCell>
        <mxCell id="uh1fHdNv8ncasZD0z1BY-12" value="" style="rounded=0;whiteSpace=wrap;html=1;fontSize=15;fillColor=#f5f5f5;strokeColor=#666666;fontColor=#333333;" vertex="1" parent="uh1fHdNv8ncasZD0z1BY-1">
          <mxGeometry x="780" y="340" width="330" height="120" as="geometry" />
        </mxCell>
        <mxCell id="uh1fHdNv8ncasZD0z1BY-9" value="" style="rounded=0;whiteSpace=wrap;html=1;fontSize=15;fillColor=#f5f5f5;strokeColor=#666666;fontColor=#333333;" vertex="1" parent="uh1fHdNv8ncasZD0z1BY-1">
          <mxGeometry x="605" y="180" width="330" height="120" as="geometry" />
        </mxCell>
        <mxCell id="uh1fHdNv8ncasZD0z1BY-2" style="edgeStyle=orthogonalEdgeStyle;rounded=0;orthogonalLoop=1;jettySize=auto;html=1;exitX=0.5;exitY=1;exitDx=0;exitDy=0;fontSize=15;" edge="1" parent="uh1fHdNv8ncasZD0z1BY-1" source="uh1fHdNv8ncasZD0z1BY-4" target="uh1fHdNv8ncasZD0z1BY-5">
          <mxGeometry relative="1" as="geometry" />
        </mxCell>
        <mxCell id="uh1fHdNv8ncasZD0z1BY-3" style="edgeStyle=orthogonalEdgeStyle;rounded=0;orthogonalLoop=1;jettySize=auto;html=1;exitX=0.5;exitY=1;exitDx=0;exitDy=0;fontSize=15;" edge="1" parent="uh1fHdNv8ncasZD0z1BY-1" source="uh1fHdNv8ncasZD0z1BY-4" target="uh1fHdNv8ncasZD0z1BY-6">
          <mxGeometry relative="1" as="geometry" />
        </mxCell>
        <mxCell id="uh1fHdNv8ncasZD0z1BY-4" value="Class Listener" style="rounded=0;whiteSpace=wrap;html=1;fontSize=23;fillColor=#dae8fc;strokeColor=#6c8ebf;fontStyle=1" vertex="1" parent="uh1fHdNv8ncasZD0z1BY-1">
          <mxGeometry x="640" y="220" width="260" height="60" as="geometry" />
        </mxCell>
        <mxCell id="uh1fHdNv8ncasZD0z1BY-5" value="Class TicketCreatedListener" style="rounded=0;whiteSpace=wrap;html=1;fontSize=23;fillColor=#dae8fc;strokeColor=#6c8ebf;fontStyle=1" vertex="1" parent="uh1fHdNv8ncasZD0z1BY-1">
          <mxGeometry x="490" y="360" width="260" height="60" as="geometry" />
        </mxCell>
        <mxCell id="uh1fHdNv8ncasZD0z1BY-6" value="Class OrderUpdatedListener" style="rounded=0;whiteSpace=wrap;html=1;fontSize=23;fillColor=#dae8fc;strokeColor=#6c8ebf;fontStyle=1" vertex="1" parent="uh1fHdNv8ncasZD0z1BY-1">
          <mxGeometry x="790" y="360" width="260" height="60" as="geometry" />
        </mxCell>
        <mxCell id="uh1fHdNv8ncasZD0z1BY-10" value="Defined in common module" style="text;html=1;strokeColor=none;fillColor=none;align=left;verticalAlign=middle;whiteSpace=wrap;rounded=0;fontSize=15;fontStyle=2" vertex="1" parent="uh1fHdNv8ncasZD0z1BY-1">
          <mxGeometry x="607" y="182" width="225" height="20" as="geometry" />
        </mxCell>
        <mxCell id="uh1fHdNv8ncasZD0z1BY-13" value="Defined in payments service" style="text;html=1;strokeColor=none;fillColor=none;align=left;verticalAlign=middle;whiteSpace=wrap;rounded=0;fontSize=15;fontStyle=2" vertex="1" parent="uh1fHdNv8ncasZD0z1BY-1">
          <mxGeometry x="441" y="438" width="225" height="20" as="geometry" />
        </mxCell>
        <mxCell id="uh1fHdNv8ncasZD0z1BY-14" value="Defined in tickets service" style="text;html=1;strokeColor=none;fillColor=none;align=left;verticalAlign=middle;whiteSpace=wrap;rounded=0;fontSize=15;fontStyle=2" vertex="1" parent="uh1fHdNv8ncasZD0z1BY-1">
          <mxGeometry x="782" y="438" width="225" height="20" as="geometry" />
        </mxCell>
      </root>
    </mxGraphModel>
  </diagram>
  <diagram id="zU6F_3o1knrt-l9EkT_U" name="05 - subj">
    <mxGraphModel dx="858" dy="422" grid="1" gridSize="10" guides="1" tooltips="1" connect="1" arrows="1" fold="1" page="1" pageScale="1" pageWidth="1920" pageHeight="1200" math="0" shadow="0">
      <root>
        <mxCell id="pTC6TbHHaDnty62D3qVt-0" />
        <mxCell id="pTC6TbHHaDnty62D3qVt-1" parent="pTC6TbHHaDnty62D3qVt-0" />
        <mxCell id="pTC6TbHHaDnty62D3qVt-13" style="edgeStyle=orthogonalEdgeStyle;rounded=0;orthogonalLoop=1;jettySize=auto;html=1;exitX=0.5;exitY=1;exitDx=0;exitDy=0;fontSize=18;" edge="1" parent="pTC6TbHHaDnty62D3qVt-1" source="pTC6TbHHaDnty62D3qVt-2" target="pTC6TbHHaDnty62D3qVt-4">
          <mxGeometry relative="1" as="geometry" />
        </mxCell>
        <mxCell id="pTC6TbHHaDnty62D3qVt-2" value="ticket:created" style="rounded=0;whiteSpace=wrap;html=1;fontSize=18;align=center;fillColor=#dae8fc;strokeColor=#6c8ebf;fontStyle=1" vertex="1" parent="pTC6TbHHaDnty62D3qVt-1">
          <mxGeometry x="520" y="260" width="180" height="60" as="geometry" />
        </mxCell>
        <mxCell id="pTC6TbHHaDnty62D3qVt-4" value="Event Data" style="rounded=0;whiteSpace=wrap;html=1;fontSize=18;align=center;fillColor=#dae8fc;strokeColor=#6c8ebf;fontStyle=1" vertex="1" parent="pTC6TbHHaDnty62D3qVt-1">
          <mxGeometry x="470" y="370" width="280" height="40" as="geometry" />
        </mxCell>
        <mxCell id="pTC6TbHHaDnty62D3qVt-5" value="key" style="rounded=0;whiteSpace=wrap;html=1;fontSize=18;align=center;fillColor=#d5e8d4;strokeColor=#82b366;fontStyle=2" vertex="1" parent="pTC6TbHHaDnty62D3qVt-1">
          <mxGeometry x="470" y="410" width="140" height="30" as="geometry" />
        </mxCell>
        <mxCell id="pTC6TbHHaDnty62D3qVt-6" value="type" style="rounded=0;whiteSpace=wrap;html=1;fontSize=18;align=center;fillColor=#d5e8d4;strokeColor=#82b366;fontStyle=2" vertex="1" parent="pTC6TbHHaDnty62D3qVt-1">
          <mxGeometry x="610" y="410" width="140" height="30" as="geometry" />
        </mxCell>
        <mxCell id="pTC6TbHHaDnty62D3qVt-7" value="id" style="rounded=0;whiteSpace=wrap;html=1;fontSize=18;align=center;fontStyle=0" vertex="1" parent="pTC6TbHHaDnty62D3qVt-1">
          <mxGeometry x="470" y="440" width="140" height="40" as="geometry" />
        </mxCell>
        <mxCell id="pTC6TbHHaDnty62D3qVt-8" value="string" style="rounded=0;whiteSpace=wrap;html=1;fontSize=18;align=center;fontStyle=0" vertex="1" parent="pTC6TbHHaDnty62D3qVt-1">
          <mxGeometry x="610" y="440" width="140" height="40" as="geometry" />
        </mxCell>
        <mxCell id="pTC6TbHHaDnty62D3qVt-9" value="price" style="rounded=0;whiteSpace=wrap;html=1;fontSize=18;align=center;fontStyle=0" vertex="1" parent="pTC6TbHHaDnty62D3qVt-1">
          <mxGeometry x="470" y="520" width="140" height="40" as="geometry" />
        </mxCell>
        <mxCell id="pTC6TbHHaDnty62D3qVt-10" value="number" style="rounded=0;whiteSpace=wrap;html=1;fontSize=18;align=center;fontStyle=0" vertex="1" parent="pTC6TbHHaDnty62D3qVt-1">
          <mxGeometry x="610" y="520" width="140" height="40" as="geometry" />
        </mxCell>
        <mxCell id="pTC6TbHHaDnty62D3qVt-11" value="title" style="rounded=0;whiteSpace=wrap;html=1;fontSize=18;align=center;fontStyle=0" vertex="1" parent="pTC6TbHHaDnty62D3qVt-1">
          <mxGeometry x="470" y="480" width="140" height="40" as="geometry" />
        </mxCell>
        <mxCell id="pTC6TbHHaDnty62D3qVt-12" value="string" style="rounded=0;whiteSpace=wrap;html=1;fontSize=18;align=center;fontStyle=0" vertex="1" parent="pTC6TbHHaDnty62D3qVt-1">
          <mxGeometry x="610" y="480" width="140" height="40" as="geometry" />
        </mxCell>
        <mxCell id="pTC6TbHHaDnty62D3qVt-14" style="edgeStyle=orthogonalEdgeStyle;rounded=0;orthogonalLoop=1;jettySize=auto;html=1;exitX=0.5;exitY=1;exitDx=0;exitDy=0;fontSize=18;" edge="1" parent="pTC6TbHHaDnty62D3qVt-1" source="pTC6TbHHaDnty62D3qVt-15" target="pTC6TbHHaDnty62D3qVt-16">
          <mxGeometry relative="1" as="geometry" />
        </mxCell>
        <mxCell id="pTC6TbHHaDnty62D3qVt-15" value="order:updated" style="rounded=0;whiteSpace=wrap;html=1;fontSize=18;align=center;fillColor=#dae8fc;strokeColor=#6c8ebf;fontStyle=1" vertex="1" parent="pTC6TbHHaDnty62D3qVt-1">
          <mxGeometry x="860" y="260" width="180" height="60" as="geometry" />
        </mxCell>
        <mxCell id="pTC6TbHHaDnty62D3qVt-16" value="Event Data" style="rounded=0;whiteSpace=wrap;html=1;fontSize=18;align=center;fillColor=#dae8fc;strokeColor=#6c8ebf;fontStyle=1" vertex="1" parent="pTC6TbHHaDnty62D3qVt-1">
          <mxGeometry x="810" y="370" width="280" height="40" as="geometry" />
        </mxCell>
        <mxCell id="pTC6TbHHaDnty62D3qVt-17" value="key" style="rounded=0;whiteSpace=wrap;html=1;fontSize=18;align=center;fillColor=#d5e8d4;strokeColor=#82b366;fontStyle=2" vertex="1" parent="pTC6TbHHaDnty62D3qVt-1">
          <mxGeometry x="810" y="410" width="140" height="30" as="geometry" />
        </mxCell>
        <mxCell id="pTC6TbHHaDnty62D3qVt-18" value="type" style="rounded=0;whiteSpace=wrap;html=1;fontSize=18;align=center;fillColor=#d5e8d4;strokeColor=#82b366;fontStyle=2" vertex="1" parent="pTC6TbHHaDnty62D3qVt-1">
          <mxGeometry x="950" y="410" width="140" height="30" as="geometry" />
        </mxCell>
        <mxCell id="pTC6TbHHaDnty62D3qVt-19" value="id" style="rounded=0;whiteSpace=wrap;html=1;fontSize=18;align=center;fontStyle=0" vertex="1" parent="pTC6TbHHaDnty62D3qVt-1">
          <mxGeometry x="810" y="440" width="140" height="40" as="geometry" />
        </mxCell>
        <mxCell id="pTC6TbHHaDnty62D3qVt-20" value="string" style="rounded=0;whiteSpace=wrap;html=1;fontSize=18;align=center;fontStyle=0" vertex="1" parent="pTC6TbHHaDnty62D3qVt-1">
          <mxGeometry x="950" y="440" width="140" height="40" as="geometry" />
        </mxCell>
        <mxCell id="pTC6TbHHaDnty62D3qVt-21" value="ticketId" style="rounded=0;whiteSpace=wrap;html=1;fontSize=18;align=center;fontStyle=0" vertex="1" parent="pTC6TbHHaDnty62D3qVt-1">
          <mxGeometry x="810" y="520" width="140" height="40" as="geometry" />
        </mxCell>
        <mxCell id="pTC6TbHHaDnty62D3qVt-22" value="string" style="rounded=0;whiteSpace=wrap;html=1;fontSize=18;align=center;fontStyle=0" vertex="1" parent="pTC6TbHHaDnty62D3qVt-1">
          <mxGeometry x="950" y="520" width="140" height="40" as="geometry" />
        </mxCell>
        <mxCell id="pTC6TbHHaDnty62D3qVt-23" value="userId" style="rounded=0;whiteSpace=wrap;html=1;fontSize=18;align=center;fontStyle=0" vertex="1" parent="pTC6TbHHaDnty62D3qVt-1">
          <mxGeometry x="810" y="480" width="140" height="40" as="geometry" />
        </mxCell>
        <mxCell id="pTC6TbHHaDnty62D3qVt-24" value="string" style="rounded=0;whiteSpace=wrap;html=1;fontSize=18;align=center;fontStyle=0" vertex="1" parent="pTC6TbHHaDnty62D3qVt-1">
          <mxGeometry x="950" y="480" width="140" height="40" as="geometry" />
        </mxCell>
        <mxCell id="pTC6TbHHaDnty62D3qVt-25" value="There is a strong mapping between subject names and event data" style="text;html=1;strokeColor=none;fillColor=none;align=center;verticalAlign=middle;whiteSpace=wrap;rounded=0;fontSize=20;fontStyle=5" vertex="1" parent="pTC6TbHHaDnty62D3qVt-1">
          <mxGeometry x="610" y="200" width="340" height="20" as="geometry" />
        </mxCell>
      </root>
    </mxGraphModel>
  </diagram>
  <diagram id="604NjqnifGFZ-PYmuLmt" name="06 - share">
    <mxGraphModel dx="858" dy="422" grid="1" gridSize="10" guides="1" tooltips="1" connect="1" arrows="1" fold="1" page="1" pageScale="1" pageWidth="1920" pageHeight="1200" math="0" shadow="0">
      <root>
        <mxCell id="9YphmxbWkmi7BL4iH1Iv-0" />
        <mxCell id="9YphmxbWkmi7BL4iH1Iv-1" parent="9YphmxbWkmi7BL4iH1Iv-0" />
        <mxCell id="dKXa6-dtKUzVGRPDRAin-0" value="Class TicketCreatedListener" style="rounded=0;whiteSpace=wrap;html=1;fontSize=23;fillColor=#dae8fc;strokeColor=#6c8ebf;fontStyle=1" vertex="1" parent="9YphmxbWkmi7BL4iH1Iv-1">
          <mxGeometry x="360" y="240" width="340" height="40" as="geometry" />
        </mxCell>
        <mxCell id="dKXa6-dtKUzVGRPDRAin-1" value="Property" style="rounded=0;whiteSpace=wrap;html=1;fontSize=15;fontStyle=2;fillColor=#d5e8d4;strokeColor=#82b366;" vertex="1" parent="9YphmxbWkmi7BL4iH1Iv-1">
          <mxGeometry x="360" y="280" width="160" height="40" as="geometry" />
        </mxCell>
        <mxCell id="dKXa6-dtKUzVGRPDRAin-2" value="Type" style="rounded=0;whiteSpace=wrap;html=1;fontSize=15;fontStyle=2;fillColor=#d5e8d4;strokeColor=#82b366;" vertex="1" parent="9YphmxbWkmi7BL4iH1Iv-1">
          <mxGeometry x="520" y="280" width="180" height="40" as="geometry" />
        </mxCell>
        <mxCell id="dKXa6-dtKUzVGRPDRAin-3" value="subject" style="rounded=0;whiteSpace=wrap;html=1;fontSize=15;fontStyle=1;" vertex="1" parent="9YphmxbWkmi7BL4iH1Iv-1">
          <mxGeometry x="360" y="320" width="160" height="40" as="geometry" />
        </mxCell>
        <mxCell id="dKXa6-dtKUzVGRPDRAin-5" value="string" style="rounded=0;whiteSpace=wrap;html=1;fontSize=15;fontStyle=0;" vertex="1" parent="9YphmxbWkmi7BL4iH1Iv-1">
          <mxGeometry x="520" y="320" width="180" height="40" as="geometry" />
        </mxCell>
        <mxCell id="dKXa6-dtKUzVGRPDRAin-7" value="onMessage" style="rounded=0;whiteSpace=wrap;html=1;fontSize=15;fontStyle=1;" vertex="1" parent="9YphmxbWkmi7BL4iH1Iv-1">
          <mxGeometry x="360" y="360" width="160" height="40" as="geometry" />
        </mxCell>
        <mxCell id="dKXa6-dtKUzVGRPDRAin-8" value="(data: any) =&amp;gt; void" style="rounded=0;whiteSpace=wrap;html=1;fontSize=15;fontStyle=0;" vertex="1" parent="9YphmxbWkmi7BL4iH1Iv-1">
          <mxGeometry x="520" y="360" width="180" height="40" as="geometry" />
        </mxCell>
        <mxCell id="x3nld6iOVL35X75Aek3f-11" style="edgeStyle=orthogonalEdgeStyle;rounded=0;orthogonalLoop=1;jettySize=auto;html=1;exitX=0;exitY=0.5;exitDx=0;exitDy=0;entryX=1;entryY=0.5;entryDx=0;entryDy=0;fontSize=20;" edge="1" parent="9YphmxbWkmi7BL4iH1Iv-1" source="x3nld6iOVL35X75Aek3f-1" target="dKXa6-dtKUzVGRPDRAin-5">
          <mxGeometry relative="1" as="geometry" />
        </mxCell>
        <mxCell id="x3nld6iOVL35X75Aek3f-1" value="ticket:created" style="rounded=0;whiteSpace=wrap;html=1;fontSize=18;align=center;fillColor=#dae8fc;strokeColor=#6c8ebf;fontStyle=1" vertex="1" parent="9YphmxbWkmi7BL4iH1Iv-1">
          <mxGeometry x="940" y="200" width="180" height="60" as="geometry" />
        </mxCell>
        <mxCell id="x3nld6iOVL35X75Aek3f-12" style="edgeStyle=orthogonalEdgeStyle;rounded=0;orthogonalLoop=1;jettySize=auto;html=1;exitX=0;exitY=0.5;exitDx=0;exitDy=0;entryX=0.5;entryY=1;entryDx=0;entryDy=0;fontSize=20;" edge="1" parent="9YphmxbWkmi7BL4iH1Iv-1" source="x3nld6iOVL35X75Aek3f-2" target="dKXa6-dtKUzVGRPDRAin-8">
          <mxGeometry relative="1" as="geometry">
            <Array as="points">
              <mxPoint x="890" y="420" />
              <mxPoint x="610" y="420" />
            </Array>
          </mxGeometry>
        </mxCell>
        <mxCell id="x3nld6iOVL35X75Aek3f-2" value="Event Data for &#39;ticket:created&#39;" style="rounded=0;whiteSpace=wrap;html=1;fontSize=18;align=center;fillColor=#dae8fc;strokeColor=#6c8ebf;fontStyle=1" vertex="1" parent="9YphmxbWkmi7BL4iH1Iv-1">
          <mxGeometry x="890" y="310" width="280" height="40" as="geometry" />
        </mxCell>
        <mxCell id="x3nld6iOVL35X75Aek3f-3" value="key" style="rounded=0;whiteSpace=wrap;html=1;fontSize=18;align=center;fillColor=#d5e8d4;strokeColor=#82b366;fontStyle=2" vertex="1" parent="9YphmxbWkmi7BL4iH1Iv-1">
          <mxGeometry x="890" y="350" width="140" height="30" as="geometry" />
        </mxCell>
        <mxCell id="x3nld6iOVL35X75Aek3f-4" value="type" style="rounded=0;whiteSpace=wrap;html=1;fontSize=18;align=center;fillColor=#d5e8d4;strokeColor=#82b366;fontStyle=2" vertex="1" parent="9YphmxbWkmi7BL4iH1Iv-1">
          <mxGeometry x="1030" y="350" width="140" height="30" as="geometry" />
        </mxCell>
        <mxCell id="x3nld6iOVL35X75Aek3f-5" value="id" style="rounded=0;whiteSpace=wrap;html=1;fontSize=18;align=center;fontStyle=0" vertex="1" parent="9YphmxbWkmi7BL4iH1Iv-1">
          <mxGeometry x="890" y="380" width="140" height="40" as="geometry" />
        </mxCell>
        <mxCell id="x3nld6iOVL35X75Aek3f-6" value="string" style="rounded=0;whiteSpace=wrap;html=1;fontSize=18;align=center;fontStyle=0" vertex="1" parent="9YphmxbWkmi7BL4iH1Iv-1">
          <mxGeometry x="1030" y="380" width="140" height="40" as="geometry" />
        </mxCell>
        <mxCell id="x3nld6iOVL35X75Aek3f-7" value="price" style="rounded=0;whiteSpace=wrap;html=1;fontSize=18;align=center;fontStyle=0" vertex="1" parent="9YphmxbWkmi7BL4iH1Iv-1">
          <mxGeometry x="890" y="460" width="140" height="40" as="geometry" />
        </mxCell>
        <mxCell id="x3nld6iOVL35X75Aek3f-8" value="number" style="rounded=0;whiteSpace=wrap;html=1;fontSize=18;align=center;fontStyle=0" vertex="1" parent="9YphmxbWkmi7BL4iH1Iv-1">
          <mxGeometry x="1030" y="460" width="140" height="40" as="geometry" />
        </mxCell>
        <mxCell id="x3nld6iOVL35X75Aek3f-9" value="title" style="rounded=0;whiteSpace=wrap;html=1;fontSize=18;align=center;fontStyle=0" vertex="1" parent="9YphmxbWkmi7BL4iH1Iv-1">
          <mxGeometry x="890" y="420" width="140" height="40" as="geometry" />
        </mxCell>
        <mxCell id="x3nld6iOVL35X75Aek3f-10" value="string" style="rounded=0;whiteSpace=wrap;html=1;fontSize=18;align=center;fontStyle=0" vertex="1" parent="9YphmxbWkmi7BL4iH1Iv-1">
          <mxGeometry x="1030" y="420" width="140" height="40" as="geometry" />
        </mxCell>
      </root>
    </mxGraphModel>
  </diagram>
  <diagram name="07 - mis" id="I7Xt8HaCYDwjKTFLMvEU">
    <mxGraphModel dx="858" dy="422" grid="1" gridSize="10" guides="1" tooltips="1" connect="1" arrows="1" fold="1" page="1" pageScale="1" pageWidth="1920" pageHeight="1200" math="0" shadow="0">
      <root>
        <mxCell id="VF3OSeyBnew3S8AfL6t2-0" />
        <mxCell id="VF3OSeyBnew3S8AfL6t2-1" parent="VF3OSeyBnew3S8AfL6t2-0" />
        <mxCell id="VF3OSeyBnew3S8AfL6t2-2" value="Class TicketCreatedListener" style="rounded=0;whiteSpace=wrap;html=1;fontSize=23;fillColor=#dae8fc;strokeColor=#6c8ebf;fontStyle=1" vertex="1" parent="VF3OSeyBnew3S8AfL6t2-1">
          <mxGeometry x="360" y="240" width="340" height="40" as="geometry" />
        </mxCell>
        <mxCell id="VF3OSeyBnew3S8AfL6t2-3" value="Property" style="rounded=0;whiteSpace=wrap;html=1;fontSize=15;fontStyle=2;fillColor=#d5e8d4;strokeColor=#82b366;" vertex="1" parent="VF3OSeyBnew3S8AfL6t2-1">
          <mxGeometry x="360" y="280" width="160" height="40" as="geometry" />
        </mxCell>
        <mxCell id="VF3OSeyBnew3S8AfL6t2-4" value="Type" style="rounded=0;whiteSpace=wrap;html=1;fontSize=15;fontStyle=2;fillColor=#d5e8d4;strokeColor=#82b366;" vertex="1" parent="VF3OSeyBnew3S8AfL6t2-1">
          <mxGeometry x="520" y="280" width="180" height="40" as="geometry" />
        </mxCell>
        <mxCell id="VF3OSeyBnew3S8AfL6t2-5" value="subject" style="rounded=0;whiteSpace=wrap;html=1;fontSize=15;fontStyle=1;" vertex="1" parent="VF3OSeyBnew3S8AfL6t2-1">
          <mxGeometry x="360" y="320" width="160" height="40" as="geometry" />
        </mxCell>
        <mxCell id="VF3OSeyBnew3S8AfL6t2-6" value="string" style="rounded=0;whiteSpace=wrap;html=1;fontSize=15;fontStyle=0;" vertex="1" parent="VF3OSeyBnew3S8AfL6t2-1">
          <mxGeometry x="520" y="320" width="180" height="40" as="geometry" />
        </mxCell>
        <mxCell id="VF3OSeyBnew3S8AfL6t2-7" value="onMessage" style="rounded=0;whiteSpace=wrap;html=1;fontSize=15;fontStyle=1;" vertex="1" parent="VF3OSeyBnew3S8AfL6t2-1">
          <mxGeometry x="360" y="360" width="160" height="40" as="geometry" />
        </mxCell>
        <mxCell id="VF3OSeyBnew3S8AfL6t2-8" value="(data: any) =&amp;gt; void" style="rounded=0;whiteSpace=wrap;html=1;fontSize=15;fontStyle=0;" vertex="1" parent="VF3OSeyBnew3S8AfL6t2-1">
          <mxGeometry x="520" y="360" width="180" height="40" as="geometry" />
        </mxCell>
        <mxCell id="VF3OSeyBnew3S8AfL6t2-9" style="edgeStyle=orthogonalEdgeStyle;rounded=0;orthogonalLoop=1;jettySize=auto;html=1;exitX=0;exitY=0.5;exitDx=0;exitDy=0;entryX=1;entryY=0.5;entryDx=0;entryDy=0;fontSize=20;" edge="1" parent="VF3OSeyBnew3S8AfL6t2-1" source="VF3OSeyBnew3S8AfL6t2-10" target="VF3OSeyBnew3S8AfL6t2-6">
          <mxGeometry relative="1" as="geometry" />
        </mxCell>
        <mxCell id="VF3OSeyBnew3S8AfL6t2-10" value="order:updated" style="rounded=0;whiteSpace=wrap;html=1;fontSize=18;align=center;fillColor=#dae8fc;strokeColor=#6c8ebf;fontStyle=1" vertex="1" parent="VF3OSeyBnew3S8AfL6t2-1">
          <mxGeometry x="940" y="200" width="180" height="60" as="geometry" />
        </mxCell>
        <mxCell id="VF3OSeyBnew3S8AfL6t2-11" style="edgeStyle=orthogonalEdgeStyle;rounded=0;orthogonalLoop=1;jettySize=auto;html=1;exitX=0;exitY=0.5;exitDx=0;exitDy=0;entryX=0.5;entryY=1;entryDx=0;entryDy=0;fontSize=20;" edge="1" parent="VF3OSeyBnew3S8AfL6t2-1" source="VF3OSeyBnew3S8AfL6t2-12" target="VF3OSeyBnew3S8AfL6t2-8">
          <mxGeometry relative="1" as="geometry">
            <Array as="points">
              <mxPoint x="890" y="420" />
              <mxPoint x="610" y="420" />
            </Array>
          </mxGeometry>
        </mxCell>
        <mxCell id="VF3OSeyBnew3S8AfL6t2-12" value="Event Data for &#39;ticket:created&#39;" style="rounded=0;whiteSpace=wrap;html=1;fontSize=18;align=center;fillColor=#dae8fc;strokeColor=#6c8ebf;fontStyle=1" vertex="1" parent="VF3OSeyBnew3S8AfL6t2-1">
          <mxGeometry x="890" y="310" width="280" height="40" as="geometry" />
        </mxCell>
        <mxCell id="VF3OSeyBnew3S8AfL6t2-13" value="key" style="rounded=0;whiteSpace=wrap;html=1;fontSize=18;align=center;fillColor=#d5e8d4;strokeColor=#82b366;fontStyle=2" vertex="1" parent="VF3OSeyBnew3S8AfL6t2-1">
          <mxGeometry x="890" y="350" width="140" height="30" as="geometry" />
        </mxCell>
        <mxCell id="VF3OSeyBnew3S8AfL6t2-14" value="type" style="rounded=0;whiteSpace=wrap;html=1;fontSize=18;align=center;fillColor=#d5e8d4;strokeColor=#82b366;fontStyle=2" vertex="1" parent="VF3OSeyBnew3S8AfL6t2-1">
          <mxGeometry x="1030" y="350" width="140" height="30" as="geometry" />
        </mxCell>
        <mxCell id="VF3OSeyBnew3S8AfL6t2-15" value="id" style="rounded=0;whiteSpace=wrap;html=1;fontSize=18;align=center;fontStyle=0" vertex="1" parent="VF3OSeyBnew3S8AfL6t2-1">
          <mxGeometry x="890" y="380" width="140" height="40" as="geometry" />
        </mxCell>
        <mxCell id="VF3OSeyBnew3S8AfL6t2-16" value="string" style="rounded=0;whiteSpace=wrap;html=1;fontSize=18;align=center;fontStyle=0" vertex="1" parent="VF3OSeyBnew3S8AfL6t2-1">
          <mxGeometry x="1030" y="380" width="140" height="40" as="geometry" />
        </mxCell>
        <mxCell id="VF3OSeyBnew3S8AfL6t2-17" value="price" style="rounded=0;whiteSpace=wrap;html=1;fontSize=18;align=center;fontStyle=0" vertex="1" parent="VF3OSeyBnew3S8AfL6t2-1">
          <mxGeometry x="890" y="460" width="140" height="40" as="geometry" />
        </mxCell>
        <mxCell id="VF3OSeyBnew3S8AfL6t2-18" value="number" style="rounded=0;whiteSpace=wrap;html=1;fontSize=18;align=center;fontStyle=0" vertex="1" parent="VF3OSeyBnew3S8AfL6t2-1">
          <mxGeometry x="1030" y="460" width="140" height="40" as="geometry" />
        </mxCell>
        <mxCell id="VF3OSeyBnew3S8AfL6t2-19" value="title" style="rounded=0;whiteSpace=wrap;html=1;fontSize=18;align=center;fontStyle=0" vertex="1" parent="VF3OSeyBnew3S8AfL6t2-1">
          <mxGeometry x="890" y="420" width="140" height="40" as="geometry" />
        </mxCell>
        <mxCell id="VF3OSeyBnew3S8AfL6t2-20" value="string" style="rounded=0;whiteSpace=wrap;html=1;fontSize=18;align=center;fontStyle=0" vertex="1" parent="VF3OSeyBnew3S8AfL6t2-1">
          <mxGeometry x="1030" y="420" width="140" height="40" as="geometry" />
        </mxCell>
        <mxCell id="gy-b2HfLf_FBeAJAmmob-0" value="" style="shape=flexArrow;endArrow=classic;html=1;fontSize=20;fillColor=#f8cecc;strokeColor=#b85450;" edge="1" parent="VF3OSeyBnew3S8AfL6t2-1">
          <mxGeometry width="50" height="50" relative="1" as="geometry">
            <mxPoint x="1030" y="140" as="sourcePoint" />
            <mxPoint x="1030" y="200" as="targetPoint" />
          </mxGeometry>
        </mxCell>
        <mxCell id="gy-b2HfLf_FBeAJAmmob-1" value="" style="shape=flexArrow;endArrow=classic;html=1;fontSize=20;fillColor=#f8cecc;strokeColor=#b85450;" edge="1" parent="VF3OSeyBnew3S8AfL6t2-1">
          <mxGeometry width="50" height="50" relative="1" as="geometry">
            <mxPoint x="960" y="140" as="sourcePoint" />
            <mxPoint x="960" y="200" as="targetPoint" />
          </mxGeometry>
        </mxCell>
        <mxCell id="gy-b2HfLf_FBeAJAmmob-2" value="" style="shape=flexArrow;endArrow=classic;html=1;fontSize=20;fillColor=#f8cecc;strokeColor=#b85450;" edge="1" parent="VF3OSeyBnew3S8AfL6t2-1">
          <mxGeometry width="50" height="50" relative="1" as="geometry">
            <mxPoint x="1099.71" y="140" as="sourcePoint" />
            <mxPoint x="1099.71" y="200" as="targetPoint" />
          </mxGeometry>
        </mxCell>
        <mxCell id="gy-b2HfLf_FBeAJAmmob-4" value="&lt;b&gt;Mismatch!&amp;nbsp; Should result in an error somewhere!&lt;/b&gt;" style="rounded=0;whiteSpace=wrap;html=1;fontSize=20;align=center;fillColor=#f8cecc;strokeColor=#b85450;" vertex="1" parent="VF3OSeyBnew3S8AfL6t2-1">
          <mxGeometry x="510" y="140" width="270" height="80" as="geometry" />
        </mxCell>
      </root>
    </mxGraphModel>
  </diagram>
  <diagram id="O1ijS2vDO6ilqLPx_pgg" name="08 - structure">
    <mxGraphModel dx="3033" dy="547" grid="1" gridSize="10" guides="1" tooltips="1" connect="1" arrows="1" fold="1" page="1" pageScale="1" pageWidth="1920" pageHeight="1200" math="0" shadow="0">
      <root>
        <mxCell id="kvVBhaN6EUpZk_5CN1SM-0" />
        <mxCell id="kvVBhaN6EUpZk_5CN1SM-1" parent="kvVBhaN6EUpZk_5CN1SM-0" />
        <mxCell id="qOX_qzUAWFREz9Mq_fXB-0" value="enum EventNames" style="rounded=0;whiteSpace=wrap;html=1;fontSize=19;align=center;fillColor=#dae8fc;strokeColor=#6c8ebf;fontStyle=1" vertex="1" parent="kvVBhaN6EUpZk_5CN1SM-1">
          <mxGeometry x="720" y="225" width="210" height="40" as="geometry" />
        </mxCell>
        <mxCell id="qOX_qzUAWFREz9Mq_fXB-1" value="&#39;ticket:created&#39;" style="rounded=0;whiteSpace=wrap;html=1;fontSize=18;align=center;fontStyle=0" vertex="1" parent="kvVBhaN6EUpZk_5CN1SM-1">
          <mxGeometry x="720" y="265" width="210" height="40" as="geometry" />
        </mxCell>
        <mxCell id="qOX_qzUAWFREz9Mq_fXB-2" value="&#39;ticket:updated&#39;" style="rounded=0;whiteSpace=wrap;html=1;fontSize=18;align=center;fontStyle=0" vertex="1" parent="kvVBhaN6EUpZk_5CN1SM-1">
          <mxGeometry x="720" y="305" width="210" height="40" as="geometry" />
        </mxCell>
        <mxCell id="qOX_qzUAWFREz9Mq_fXB-3" value="&#39;order:created&#39;" style="rounded=0;whiteSpace=wrap;html=1;fontSize=18;align=center;fontStyle=0" vertex="1" parent="kvVBhaN6EUpZk_5CN1SM-1">
          <mxGeometry x="720" y="345" width="210" height="40" as="geometry" />
        </mxCell>
        <mxCell id="qOX_qzUAWFREz9Mq_fXB-15" style="edgeStyle=orthogonalEdgeStyle;rounded=0;orthogonalLoop=1;jettySize=auto;html=1;exitX=0;exitY=0.5;exitDx=0;exitDy=0;entryX=0;entryY=0.5;entryDx=0;entryDy=0;fontSize=14;" edge="1" parent="kvVBhaN6EUpZk_5CN1SM-1" source="qOX_qzUAWFREz9Mq_fXB-4" target="qOX_qzUAWFREz9Mq_fXB-10">
          <mxGeometry relative="1" as="geometry" />
        </mxCell>
        <mxCell id="qOX_qzUAWFREz9Mq_fXB-28" style="edgeStyle=orthogonalEdgeStyle;rounded=0;orthogonalLoop=1;jettySize=auto;html=1;exitX=0;exitY=0.5;exitDx=0;exitDy=0;entryX=1;entryY=0.5;entryDx=0;entryDy=0;fontSize=14;" edge="1" parent="kvVBhaN6EUpZk_5CN1SM-1" source="qOX_qzUAWFREz9Mq_fXB-4" target="qOX_qzUAWFREz9Mq_fXB-16">
          <mxGeometry relative="1" as="geometry" />
        </mxCell>
        <mxCell id="qOX_qzUAWFREz9Mq_fXB-32" style="edgeStyle=orthogonalEdgeStyle;rounded=0;orthogonalLoop=1;jettySize=auto;html=1;exitX=1;exitY=0.5;exitDx=0;exitDy=0;fontSize=14;" edge="1" parent="kvVBhaN6EUpZk_5CN1SM-1" source="qOX_qzUAWFREz9Mq_fXB-4" target="qOX_qzUAWFREz9Mq_fXB-0">
          <mxGeometry relative="1" as="geometry" />
        </mxCell>
        <mxCell id="qOX_qzUAWFREz9Mq_fXB-4" value="interface Event" style="rounded=0;whiteSpace=wrap;html=1;fontSize=19;align=center;fillColor=#dae8fc;strokeColor=#6c8ebf;fontStyle=1" vertex="1" parent="kvVBhaN6EUpZk_5CN1SM-1">
          <mxGeometry x="320" y="220" width="320" height="50" as="geometry" />
        </mxCell>
        <mxCell id="qOX_qzUAWFREz9Mq_fXB-5" value="subject" style="rounded=0;whiteSpace=wrap;html=1;fontSize=18;align=center;fontStyle=0" vertex="1" parent="kvVBhaN6EUpZk_5CN1SM-1">
          <mxGeometry x="320" y="270" width="160" height="40" as="geometry" />
        </mxCell>
        <mxCell id="qOX_qzUAWFREz9Mq_fXB-6" value="EventNames" style="rounded=0;whiteSpace=wrap;html=1;fontSize=18;align=center;fontStyle=0" vertex="1" parent="kvVBhaN6EUpZk_5CN1SM-1">
          <mxGeometry x="480" y="270" width="160" height="40" as="geometry" />
        </mxCell>
        <mxCell id="qOX_qzUAWFREz9Mq_fXB-8" value="data" style="rounded=0;whiteSpace=wrap;html=1;fontSize=18;align=center;fontStyle=0" vertex="1" parent="kvVBhaN6EUpZk_5CN1SM-1">
          <mxGeometry x="320" y="310" width="160" height="40" as="geometry" />
        </mxCell>
        <mxCell id="qOX_qzUAWFREz9Mq_fXB-9" value="any" style="rounded=0;whiteSpace=wrap;html=1;fontSize=18;align=center;fontStyle=0" vertex="1" parent="kvVBhaN6EUpZk_5CN1SM-1">
          <mxGeometry x="480" y="310" width="160" height="40" as="geometry" />
        </mxCell>
        <mxCell id="qOX_qzUAWFREz9Mq_fXB-29" style="edgeStyle=orthogonalEdgeStyle;rounded=0;orthogonalLoop=1;jettySize=auto;html=1;exitX=0;exitY=0.75;exitDx=0;exitDy=0;entryX=1;entryY=0.75;entryDx=0;entryDy=0;fontSize=14;" edge="1" parent="kvVBhaN6EUpZk_5CN1SM-1" source="qOX_qzUAWFREz9Mq_fXB-10" target="qOX_qzUAWFREz9Mq_fXB-22">
          <mxGeometry relative="1" as="geometry" />
        </mxCell>
        <mxCell id="qOX_qzUAWFREz9Mq_fXB-10" value="interface TicketCreatedEvent extends Event" style="rounded=0;whiteSpace=wrap;html=1;fontSize=19;align=center;fillColor=#dae8fc;strokeColor=#6c8ebf;fontStyle=1" vertex="1" parent="kvVBhaN6EUpZk_5CN1SM-1">
          <mxGeometry x="320" y="400" width="350" height="50" as="geometry" />
        </mxCell>
        <mxCell id="qOX_qzUAWFREz9Mq_fXB-11" value="subject" style="rounded=0;whiteSpace=wrap;html=1;fontSize=18;align=center;fontStyle=0" vertex="1" parent="kvVBhaN6EUpZk_5CN1SM-1">
          <mxGeometry x="320" y="450" width="160" height="40" as="geometry" />
        </mxCell>
        <mxCell id="qOX_qzUAWFREz9Mq_fXB-12" value="EventNames.TicketCreated" style="rounded=0;whiteSpace=wrap;html=1;fontSize=15;align=center;fontStyle=0" vertex="1" parent="kvVBhaN6EUpZk_5CN1SM-1">
          <mxGeometry x="480" y="450" width="190" height="40" as="geometry" />
        </mxCell>
        <mxCell id="qOX_qzUAWFREz9Mq_fXB-13" value="data" style="rounded=0;whiteSpace=wrap;html=1;fontSize=18;align=center;fontStyle=0" vertex="1" parent="kvVBhaN6EUpZk_5CN1SM-1">
          <mxGeometry x="320" y="490" width="160" height="40" as="geometry" />
        </mxCell>
        <mxCell id="qOX_qzUAWFREz9Mq_fXB-14" value="{ id: string, title: string, price: number }" style="rounded=0;whiteSpace=wrap;html=1;fontSize=14;align=center;fontStyle=0" vertex="1" parent="kvVBhaN6EUpZk_5CN1SM-1">
          <mxGeometry x="480" y="490" width="190" height="40" as="geometry" />
        </mxCell>
        <mxCell id="qOX_qzUAWFREz9Mq_fXB-27" style="edgeStyle=orthogonalEdgeStyle;rounded=0;orthogonalLoop=1;jettySize=auto;html=1;exitX=0;exitY=0.5;exitDx=0;exitDy=0;entryX=0;entryY=0.5;entryDx=0;entryDy=0;fontSize=14;" edge="1" parent="kvVBhaN6EUpZk_5CN1SM-1" source="qOX_qzUAWFREz9Mq_fXB-16" target="qOX_qzUAWFREz9Mq_fXB-22">
          <mxGeometry relative="1" as="geometry" />
        </mxCell>
        <mxCell id="qOX_qzUAWFREz9Mq_fXB-16" value="abstract class Listener&amp;lt;T extends Event&amp;gt;" style="rounded=0;whiteSpace=wrap;html=1;fontSize=19;align=center;fillColor=#dae8fc;strokeColor=#6c8ebf;fontStyle=1" vertex="1" parent="kvVBhaN6EUpZk_5CN1SM-1">
          <mxGeometry x="-140" y="220" width="390" height="50" as="geometry" />
        </mxCell>
        <mxCell id="qOX_qzUAWFREz9Mq_fXB-18" value="subject" style="rounded=0;whiteSpace=wrap;html=1;fontSize=18;align=center;fontStyle=0" vertex="1" parent="kvVBhaN6EUpZk_5CN1SM-1">
          <mxGeometry x="-140" y="270" width="190" height="40" as="geometry" />
        </mxCell>
        <mxCell id="qOX_qzUAWFREz9Mq_fXB-19" value="T[&#39;subject&#39;]" style="rounded=0;whiteSpace=wrap;html=1;fontSize=18;align=center;fontStyle=0" vertex="1" parent="kvVBhaN6EUpZk_5CN1SM-1">
          <mxGeometry x="50" y="270" width="200" height="40" as="geometry" />
        </mxCell>
        <mxCell id="qOX_qzUAWFREz9Mq_fXB-20" value="onMessage" style="rounded=0;whiteSpace=wrap;html=1;fontSize=18;align=center;fontStyle=0" vertex="1" parent="kvVBhaN6EUpZk_5CN1SM-1">
          <mxGeometry x="-140" y="310" width="190" height="40" as="geometry" />
        </mxCell>
        <mxCell id="qOX_qzUAWFREz9Mq_fXB-21" value="(T[&#39;data&#39;]) =&amp;gt; void" style="rounded=0;whiteSpace=wrap;html=1;fontSize=18;align=center;fontStyle=0" vertex="1" parent="kvVBhaN6EUpZk_5CN1SM-1">
          <mxGeometry x="50" y="310" width="200" height="40" as="geometry" />
        </mxCell>
        <mxCell id="qOX_qzUAWFREz9Mq_fXB-22" value="class TicketCreatedListener extends Listener&amp;lt;TicketCreatedEvent&amp;gt;" style="rounded=0;whiteSpace=wrap;html=1;fontSize=19;align=center;fillColor=#dae8fc;strokeColor=#6c8ebf;fontStyle=1" vertex="1" parent="kvVBhaN6EUpZk_5CN1SM-1">
          <mxGeometry x="-140" y="400" width="390" height="50" as="geometry" />
        </mxCell>
        <mxCell id="qOX_qzUAWFREz9Mq_fXB-23" value="subject" style="rounded=0;whiteSpace=wrap;html=1;fontSize=18;align=center;fontStyle=0" vertex="1" parent="kvVBhaN6EUpZk_5CN1SM-1">
          <mxGeometry x="-140" y="450" width="190" height="40" as="geometry" />
        </mxCell>
        <mxCell id="qOX_qzUAWFREz9Mq_fXB-24" value="EventNames.TicketCreated" style="rounded=0;whiteSpace=wrap;html=1;fontSize=14;align=center;fontStyle=0" vertex="1" parent="kvVBhaN6EUpZk_5CN1SM-1">
          <mxGeometry x="50" y="450" width="200" height="40" as="geometry" />
        </mxCell>
        <mxCell id="qOX_qzUAWFREz9Mq_fXB-25" value="onMessage" style="rounded=0;whiteSpace=wrap;html=1;fontSize=18;align=center;fontStyle=0" vertex="1" parent="kvVBhaN6EUpZk_5CN1SM-1">
          <mxGeometry x="-140" y="490" width="190" height="40" as="geometry" />
        </mxCell>
        <mxCell id="qOX_qzUAWFREz9Mq_fXB-26" value="(T[&#39;data&#39;]) =&amp;gt; void" style="rounded=0;whiteSpace=wrap;html=1;fontSize=18;align=center;fontStyle=0" vertex="1" parent="kvVBhaN6EUpZk_5CN1SM-1">
          <mxGeometry x="50" y="490" width="200" height="40" as="geometry" />
        </mxCell>
      </root>
    </mxGraphModel>
  </diagram>
  <diagram id="SeL7nh6xccT2YGO_uJQm" name="09 - chase">
    <mxGraphModel dx="1036" dy="510" grid="1" gridSize="10" guides="1" tooltips="1" connect="1" arrows="1" fold="1" page="1" pageScale="1" pageWidth="1920" pageHeight="1200" math="0" shadow="0">
      <root>
        <mxCell id="EPkD9Lm8oUfk3HI0YMQg-0" />
        <mxCell id="EPkD9Lm8oUfk3HI0YMQg-1" parent="EPkD9Lm8oUfk3HI0YMQg-0" />
        <mxCell id="WslNI6qgnE8sBXHZcZLk-4" value="" style="rounded=0;whiteSpace=wrap;html=1;fontSize=19;align=center;fillColor=#f5f5f5;strokeColor=#666666;fontStyle=1;fontColor=#333333;" vertex="1" parent="EPkD9Lm8oUfk3HI0YMQg-1">
          <mxGeometry x="320" y="260" width="410" height="230" as="geometry" />
        </mxCell>
        <mxCell id="tBB-NE0WZRurrQJXHs1x-0" value="event-subjects.ts" style="rounded=0;whiteSpace=wrap;html=1;fontSize=19;align=center;fillColor=#f5f5f5;strokeColor=#666666;fontStyle=1;fontColor=#333333;" vertex="1" parent="EPkD9Lm8oUfk3HI0YMQg-1">
          <mxGeometry x="320" y="210" width="410" height="50" as="geometry" />
        </mxCell>
        <mxCell id="WslNI6qgnE8sBXHZcZLk-0" value="enum EventSubjects" style="rounded=0;whiteSpace=wrap;html=1;fontSize=19;align=center;fillColor=#dae8fc;strokeColor=#6c8ebf;fontStyle=1" vertex="1" parent="EPkD9Lm8oUfk3HI0YMQg-1">
          <mxGeometry x="420" y="290" width="210" height="40" as="geometry" />
        </mxCell>
        <mxCell id="WslNI6qgnE8sBXHZcZLk-1" value="&#39;ticket:created&#39;" style="rounded=0;whiteSpace=wrap;html=1;fontSize=18;align=center;fontStyle=0" vertex="1" parent="EPkD9Lm8oUfk3HI0YMQg-1">
          <mxGeometry x="420" y="330" width="210" height="40" as="geometry" />
        </mxCell>
        <mxCell id="WslNI6qgnE8sBXHZcZLk-2" value="&#39;ticket:updated&#39;" style="rounded=0;whiteSpace=wrap;html=1;fontSize=18;align=center;fontStyle=0" vertex="1" parent="EPkD9Lm8oUfk3HI0YMQg-1">
          <mxGeometry x="420" y="370" width="210" height="40" as="geometry" />
        </mxCell>
        <mxCell id="WslNI6qgnE8sBXHZcZLk-3" value="&#39;order:created&#39;" style="rounded=0;whiteSpace=wrap;html=1;fontSize=18;align=center;fontStyle=0" vertex="1" parent="EPkD9Lm8oUfk3HI0YMQg-1">
          <mxGeometry x="420" y="410" width="210" height="40" as="geometry" />
        </mxCell>
        <mxCell id="WslNI6qgnE8sBXHZcZLk-5" value="" style="rounded=0;whiteSpace=wrap;html=1;fontSize=19;align=center;fillColor=#f5f5f5;strokeColor=#666666;fontStyle=1;fontColor=#333333;" vertex="1" parent="EPkD9Lm8oUfk3HI0YMQg-1">
          <mxGeometry x="770" y="260" width="410" height="330" as="geometry" />
        </mxCell>
        <mxCell id="WslNI6qgnE8sBXHZcZLk-6" value="ticket-created-listener.ts" style="rounded=0;whiteSpace=wrap;html=1;fontSize=19;align=center;fillColor=#f5f5f5;strokeColor=#666666;fontStyle=1;fontColor=#333333;" vertex="1" parent="EPkD9Lm8oUfk3HI0YMQg-1">
          <mxGeometry x="770" y="210" width="410" height="50" as="geometry" />
        </mxCell>
        <mxCell id="WslNI6qgnE8sBXHZcZLk-19" style="edgeStyle=orthogonalEdgeStyle;rounded=0;orthogonalLoop=1;jettySize=auto;html=1;exitX=1;exitY=0.5;exitDx=0;exitDy=0;entryX=1;entryY=0.5;entryDx=0;entryDy=0;fontSize=16;" edge="1" parent="EPkD9Lm8oUfk3HI0YMQg-1" source="WslNI6qgnE8sBXHZcZLk-7" target="WslNI6qgnE8sBXHZcZLk-14">
          <mxGeometry relative="1" as="geometry" />
        </mxCell>
        <mxCell id="WslNI6qgnE8sBXHZcZLk-7" value="interface TicketCreatedEvent" style="rounded=0;whiteSpace=wrap;html=1;fontSize=19;align=center;fillColor=#dae8fc;strokeColor=#6c8ebf;fontStyle=1" vertex="1" parent="EPkD9Lm8oUfk3HI0YMQg-1">
          <mxGeometry x="815" y="270" width="325" height="40" as="geometry" />
        </mxCell>
        <mxCell id="WslNI6qgnE8sBXHZcZLk-8" value="subject" style="rounded=0;whiteSpace=wrap;html=1;fontSize=18;align=center;fontStyle=0" vertex="1" parent="EPkD9Lm8oUfk3HI0YMQg-1">
          <mxGeometry x="815" y="310" width="165" height="40" as="geometry" />
        </mxCell>
        <mxCell id="WslNI6qgnE8sBXHZcZLk-11" value="EventSubjects.TicketCreated" style="rounded=0;whiteSpace=wrap;html=1;fontSize=12;align=center;fontStyle=0" vertex="1" parent="EPkD9Lm8oUfk3HI0YMQg-1">
          <mxGeometry x="975" y="310" width="165" height="40" as="geometry" />
        </mxCell>
        <mxCell id="WslNI6qgnE8sBXHZcZLk-12" value="data" style="rounded=0;whiteSpace=wrap;html=1;fontSize=18;align=center;fontStyle=0" vertex="1" parent="EPkD9Lm8oUfk3HI0YMQg-1">
          <mxGeometry x="815" y="350" width="165" height="40" as="geometry" />
        </mxCell>
        <mxCell id="WslNI6qgnE8sBXHZcZLk-13" value="{ id: string, title: string, price: number }" style="rounded=0;whiteSpace=wrap;html=1;fontSize=12;align=center;fontStyle=0" vertex="1" parent="EPkD9Lm8oUfk3HI0YMQg-1">
          <mxGeometry x="975" y="350" width="165" height="40" as="geometry" />
        </mxCell>
        <mxCell id="WslNI6qgnE8sBXHZcZLk-14" value="class TicketCreatedListener extends Listener&amp;lt;TicketCreatedEvent&amp;gt;" style="rounded=0;whiteSpace=wrap;html=1;fontSize=16;align=center;fillColor=#dae8fc;strokeColor=#6c8ebf;fontStyle=1" vertex="1" parent="EPkD9Lm8oUfk3HI0YMQg-1">
          <mxGeometry x="812.5" y="420" width="325" height="40" as="geometry" />
        </mxCell>
        <mxCell id="WslNI6qgnE8sBXHZcZLk-15" value="subject" style="rounded=0;whiteSpace=wrap;html=1;fontSize=18;align=center;fontStyle=0" vertex="1" parent="EPkD9Lm8oUfk3HI0YMQg-1">
          <mxGeometry x="812.5" y="460" width="165" height="40" as="geometry" />
        </mxCell>
        <mxCell id="WslNI6qgnE8sBXHZcZLk-16" value="EventSubjects.TicketCreated" style="rounded=0;whiteSpace=wrap;html=1;fontSize=12;align=center;fontStyle=0" vertex="1" parent="EPkD9Lm8oUfk3HI0YMQg-1">
          <mxGeometry x="972.5" y="460" width="165" height="40" as="geometry" />
        </mxCell>
        <mxCell id="WslNI6qgnE8sBXHZcZLk-17" value="onEvent" style="rounded=0;whiteSpace=wrap;html=1;fontSize=18;align=center;fontStyle=0" vertex="1" parent="EPkD9Lm8oUfk3HI0YMQg-1">
          <mxGeometry x="812.5" y="500" width="165" height="40" as="geometry" />
        </mxCell>
        <mxCell id="WslNI6qgnE8sBXHZcZLk-18" value="(data: TicketCreatedEvent[&#39;data&#39;]) =&amp;gt; void" style="rounded=0;whiteSpace=wrap;html=1;fontSize=12;align=center;fontStyle=0" vertex="1" parent="EPkD9Lm8oUfk3HI0YMQg-1">
          <mxGeometry x="972.5" y="500" width="165" height="40" as="geometry" />
        </mxCell>
      </root>
    </mxGraphModel>
  </diagram>
  <diagram id="6pQUKfMjyYWaMgbvbUUm" name="10 - common">
    <mxGraphModel dx="1001" dy="493" grid="1" gridSize="10" guides="1" tooltips="1" connect="1" arrows="1" fold="1" page="1" pageScale="1" pageWidth="1920" pageHeight="1200" math="0" shadow="0">
      <root>
        <mxCell id="4J4yS9sDmyT14KGirZIi-0" />
        <mxCell id="4J4yS9sDmyT14KGirZIi-1" parent="4J4yS9sDmyT14KGirZIi-0" />
        <mxCell id="4J4yS9sDmyT14KGirZIi-2" value="" style="rounded=0;whiteSpace=wrap;html=1;fontSize=15;fillColor=#f5f5f5;strokeColor=#666666;fontColor=#333333;" vertex="1" parent="4J4yS9sDmyT14KGirZIi-1">
          <mxGeometry x="440" y="340" width="330" height="120" as="geometry" />
        </mxCell>
        <mxCell id="4J4yS9sDmyT14KGirZIi-3" value="" style="rounded=0;whiteSpace=wrap;html=1;fontSize=15;fillColor=#f5f5f5;strokeColor=#666666;fontColor=#333333;" vertex="1" parent="4J4yS9sDmyT14KGirZIi-1">
          <mxGeometry x="780" y="340" width="330" height="120" as="geometry" />
        </mxCell>
        <mxCell id="4J4yS9sDmyT14KGirZIi-4" value="" style="rounded=0;whiteSpace=wrap;html=1;fontSize=15;fillColor=#f5f5f5;strokeColor=#666666;fontColor=#333333;" vertex="1" parent="4J4yS9sDmyT14KGirZIi-1">
          <mxGeometry x="357.5" y="170" width="825" height="120" as="geometry" />
        </mxCell>
        <mxCell id="4J4yS9sDmyT14KGirZIi-5" style="edgeStyle=orthogonalEdgeStyle;rounded=0;orthogonalLoop=1;jettySize=auto;html=1;exitX=0.5;exitY=1;exitDx=0;exitDy=0;fontSize=15;" edge="1" parent="4J4yS9sDmyT14KGirZIi-1" source="4J4yS9sDmyT14KGirZIi-7" target="4J4yS9sDmyT14KGirZIi-8">
          <mxGeometry relative="1" as="geometry" />
        </mxCell>
        <mxCell id="4J4yS9sDmyT14KGirZIi-6" style="edgeStyle=orthogonalEdgeStyle;rounded=0;orthogonalLoop=1;jettySize=auto;html=1;exitX=0.5;exitY=1;exitDx=0;exitDy=0;fontSize=15;" edge="1" parent="4J4yS9sDmyT14KGirZIi-1" source="4J4yS9sDmyT14KGirZIi-7" target="4J4yS9sDmyT14KGirZIi-9">
          <mxGeometry relative="1" as="geometry" />
        </mxCell>
        <mxCell id="4J4yS9sDmyT14KGirZIi-7" value="Class Listener" style="rounded=0;whiteSpace=wrap;html=1;fontSize=23;fillColor=#dae8fc;strokeColor=#6c8ebf;fontStyle=1" vertex="1" parent="4J4yS9sDmyT14KGirZIi-1">
          <mxGeometry x="640" y="220" width="260" height="60" as="geometry" />
        </mxCell>
        <mxCell id="4J4yS9sDmyT14KGirZIi-8" value="Class TicketCreatedListener" style="rounded=0;whiteSpace=wrap;html=1;fontSize=23;fillColor=#dae8fc;strokeColor=#6c8ebf;fontStyle=1" vertex="1" parent="4J4yS9sDmyT14KGirZIi-1">
          <mxGeometry x="490" y="360" width="260" height="60" as="geometry" />
        </mxCell>
        <mxCell id="4J4yS9sDmyT14KGirZIi-9" value="Class OrderUpdatedListener" style="rounded=0;whiteSpace=wrap;html=1;fontSize=23;fillColor=#dae8fc;strokeColor=#6c8ebf;fontStyle=1" vertex="1" parent="4J4yS9sDmyT14KGirZIi-1">
          <mxGeometry x="790" y="360" width="260" height="60" as="geometry" />
        </mxCell>
        <mxCell id="4J4yS9sDmyT14KGirZIi-10" value="Defined in common module" style="text;html=1;strokeColor=none;fillColor=none;align=left;verticalAlign=middle;whiteSpace=wrap;rounded=0;fontSize=15;fontStyle=2" vertex="1" parent="4J4yS9sDmyT14KGirZIi-1">
          <mxGeometry x="357.5" y="170" width="225" height="20" as="geometry" />
        </mxCell>
        <mxCell id="4J4yS9sDmyT14KGirZIi-11" value="Defined in payments service" style="text;html=1;strokeColor=none;fillColor=none;align=left;verticalAlign=middle;whiteSpace=wrap;rounded=0;fontSize=15;fontStyle=2" vertex="1" parent="4J4yS9sDmyT14KGirZIi-1">
          <mxGeometry x="441" y="438" width="225" height="20" as="geometry" />
        </mxCell>
        <mxCell id="4J4yS9sDmyT14KGirZIi-12" value="Defined in tickets service" style="text;html=1;strokeColor=none;fillColor=none;align=left;verticalAlign=middle;whiteSpace=wrap;rounded=0;fontSize=15;fontStyle=2" vertex="1" parent="4J4yS9sDmyT14KGirZIi-1">
          <mxGeometry x="782" y="438" width="225" height="20" as="geometry" />
        </mxCell>
        <mxCell id="4J4yS9sDmyT14KGirZIi-13" value="enum Subjects" style="rounded=0;whiteSpace=wrap;html=1;fontSize=23;fillColor=#dae8fc;strokeColor=#6c8ebf;fontStyle=1" vertex="1" parent="4J4yS9sDmyT14KGirZIi-1">
          <mxGeometry x="370" y="220" width="260" height="60" as="geometry" />
        </mxCell>
        <mxCell id="4J4yS9sDmyT14KGirZIi-14" value="interface TicketUpdatedEvent" style="rounded=0;whiteSpace=wrap;html=1;fontSize=23;fillColor=#dae8fc;strokeColor=#6c8ebf;fontStyle=1" vertex="1" parent="4J4yS9sDmyT14KGirZIi-1">
          <mxGeometry x="910" y="220" width="260" height="60" as="geometry" />
        </mxCell>
      </root>
    </mxGraphModel>
  </diagram>
  <diagram id="3lrvAuHd0-3cUJD9ybrq" name="14 - test">
    <mxGraphModel dx="733" dy="360" grid="1" gridSize="10" guides="1" tooltips="1" connect="1" arrows="1" fold="1" page="1" pageScale="1" pageWidth="1920" pageHeight="1200" math="0" shadow="0">
      <root>
        <mxCell id="IRV9fEgX_uR6R21rc2vr-0" />
        <mxCell id="IRV9fEgX_uR6R21rc2vr-1" parent="IRV9fEgX_uR6R21rc2vr-0" />
        <mxCell id="GHeUhfIobsRVPmRh96U--2" style="edgeStyle=orthogonalEdgeStyle;rounded=0;orthogonalLoop=1;jettySize=auto;html=1;exitX=1;exitY=0.5;exitDx=0;exitDy=0;fontSize=26;" edge="1" parent="IRV9fEgX_uR6R21rc2vr-1" source="GHeUhfIobsRVPmRh96U--0">
          <mxGeometry relative="1" as="geometry">
            <mxPoint x="710" y="300.28571428571433" as="targetPoint" />
          </mxGeometry>
        </mxCell>
        <mxCell id="GHeUhfIobsRVPmRh96U--0" value="Publishers" style="rounded=0;whiteSpace=wrap;html=1;fontSize=26;align=center;fillColor=#dae8fc;strokeColor=#6c8ebf;fontStyle=1" vertex="1" parent="IRV9fEgX_uR6R21rc2vr-1">
          <mxGeometry x="520" y="260" width="160" height="80" as="geometry" />
        </mxCell>
        <mxCell id="GHeUhfIobsRVPmRh96U--1" value="Listeners" style="rounded=0;whiteSpace=wrap;html=1;fontSize=26;align=center;fillColor=#dae8fc;strokeColor=#6c8ebf;fontStyle=1" vertex="1" parent="IRV9fEgX_uR6R21rc2vr-1">
          <mxGeometry x="520" y="360" width="160" height="80" as="geometry" />
        </mxCell>
        <mxCell id="GHeUhfIobsRVPmRh96U--3" value="Similar to making a network request.&amp;nbsp; Not a lot to test" style="rounded=0;whiteSpace=wrap;html=1;fontSize=16;align=center;" vertex="1" parent="IRV9fEgX_uR6R21rc2vr-1">
          <mxGeometry x="710" y="270" width="420" height="60" as="geometry" />
        </mxCell>
        <mxCell id="GHeUhfIobsRVPmRh96U--4" style="edgeStyle=orthogonalEdgeStyle;rounded=0;orthogonalLoop=1;jettySize=auto;html=1;exitX=1;exitY=0.5;exitDx=0;exitDy=0;fontSize=26;" edge="1" parent="IRV9fEgX_uR6R21rc2vr-1">
          <mxGeometry relative="1" as="geometry">
            <mxPoint x="710" y="400.28571428571433" as="targetPoint" />
            <mxPoint x="680" y="400" as="sourcePoint" />
          </mxGeometry>
        </mxCell>
        <mxCell id="GHeUhfIobsRVPmRh96U--5" value="Super similar in nature to request handlers!&amp;nbsp; Tons of stuff to test!" style="rounded=0;whiteSpace=wrap;html=1;fontSize=16;align=center;" vertex="1" parent="IRV9fEgX_uR6R21rc2vr-1">
          <mxGeometry x="710" y="370" width="420" height="60" as="geometry" />
        </mxCell>
      </root>
    </mxGraphModel>
  </diagram>
  <diagram id="9NZlnsBtuu-WMNzsI7fD" name="11 - common">
    <mxGraphModel dx="751" dy="370" grid="1" gridSize="10" guides="1" tooltips="1" connect="1" arrows="1" fold="1" page="1" pageScale="1" pageWidth="1920" pageHeight="1200" math="0" shadow="0">
      <root>
        <mxCell id="hrqb3gGrcIVKY-zsB2rb-0" />
        <mxCell id="hrqb3gGrcIVKY-zsB2rb-1" parent="hrqb3gGrcIVKY-zsB2rb-0" />
        <mxCell id="mCidFeRhqzQsI7ztaqIR-0" value="" style="rounded=0;whiteSpace=wrap;html=1;fontSize=15;fillColor=#f5f5f5;strokeColor=#666666;fontColor=#333333;" vertex="1" parent="hrqb3gGrcIVKY-zsB2rb-1">
          <mxGeometry x="850" y="200" width="275" height="310" as="geometry" />
        </mxCell>
        <mxCell id="mCidFeRhqzQsI7ztaqIR-1" value="Listing of Event Names (Subjects)" style="rounded=0;whiteSpace=wrap;html=1;fontSize=16;align=center;" vertex="1" parent="hrqb3gGrcIVKY-zsB2rb-1">
          <mxGeometry x="896.25" y="220" width="180" height="60" as="geometry" />
        </mxCell>
        <mxCell id="mCidFeRhqzQsI7ztaqIR-2" value="Exact definition of &lt;b&gt;TicketCreated&lt;/b&gt; Event" style="rounded=0;whiteSpace=wrap;html=1;fontSize=16;align=center;" vertex="1" parent="hrqb3gGrcIVKY-zsB2rb-1">
          <mxGeometry x="896.25" y="290" width="180" height="60" as="geometry" />
        </mxCell>
        <mxCell id="mCidFeRhqzQsI7ztaqIR-3" value="Exact definition of &lt;b&gt;TicketUpdated&lt;/b&gt; Event" style="rounded=0;whiteSpace=wrap;html=1;fontSize=16;align=center;" vertex="1" parent="hrqb3gGrcIVKY-zsB2rb-1">
          <mxGeometry x="896.25" y="360" width="180" height="60" as="geometry" />
        </mxCell>
        <mxCell id="mCidFeRhqzQsI7ztaqIR-4" value="Exact definition of &lt;b&gt;OrderUpdated&lt;/b&gt; Event" style="rounded=0;whiteSpace=wrap;html=1;fontSize=16;align=center;" vertex="1" parent="hrqb3gGrcIVKY-zsB2rb-1">
          <mxGeometry x="896.25" y="430" width="180" height="60" as="geometry" />
        </mxCell>
        <mxCell id="mCidFeRhqzQsI7ztaqIR-11" style="edgeStyle=orthogonalEdgeStyle;rounded=0;orthogonalLoop=1;jettySize=auto;html=1;exitX=1;exitY=0.5;exitDx=0;exitDy=0;fontSize=16;" edge="1" parent="hrqb3gGrcIVKY-zsB2rb-1" source="mCidFeRhqzQsI7ztaqIR-5" target="mCidFeRhqzQsI7ztaqIR-0">
          <mxGeometry relative="1" as="geometry" />
        </mxCell>
        <mxCell id="mCidFeRhqzQsI7ztaqIR-5" value="Tickets Service" style="rounded=0;whiteSpace=wrap;html=1;fontSize=16;align=center;fontStyle=1;fillColor=#f5f5f5;strokeColor=#666666;fontColor=#333333;" vertex="1" parent="hrqb3gGrcIVKY-zsB2rb-1">
          <mxGeometry x="570" y="260" width="210" height="40" as="geometry" />
        </mxCell>
        <mxCell id="mCidFeRhqzQsI7ztaqIR-12" style="edgeStyle=orthogonalEdgeStyle;rounded=0;orthogonalLoop=1;jettySize=auto;html=1;exitX=1;exitY=0.5;exitDx=0;exitDy=0;fontSize=16;" edge="1" parent="hrqb3gGrcIVKY-zsB2rb-1" source="mCidFeRhqzQsI7ztaqIR-6" target="mCidFeRhqzQsI7ztaqIR-0">
          <mxGeometry relative="1" as="geometry" />
        </mxCell>
        <mxCell id="mCidFeRhqzQsI7ztaqIR-6" value="Orders Service" style="rounded=0;whiteSpace=wrap;html=1;fontSize=16;align=center;fontStyle=1;fillColor=#f5f5f5;strokeColor=#666666;fontColor=#333333;" vertex="1" parent="hrqb3gGrcIVKY-zsB2rb-1">
          <mxGeometry x="570" y="310" width="210" height="40" as="geometry" />
        </mxCell>
        <mxCell id="mCidFeRhqzQsI7ztaqIR-13" style="edgeStyle=orthogonalEdgeStyle;rounded=0;orthogonalLoop=1;jettySize=auto;html=1;exitX=1;exitY=0.5;exitDx=0;exitDy=0;entryX=0;entryY=0.5;entryDx=0;entryDy=0;fontSize=16;" edge="1" parent="hrqb3gGrcIVKY-zsB2rb-1" source="mCidFeRhqzQsI7ztaqIR-7" target="mCidFeRhqzQsI7ztaqIR-0">
          <mxGeometry relative="1" as="geometry" />
        </mxCell>
        <mxCell id="mCidFeRhqzQsI7ztaqIR-7" value="Payments Service" style="rounded=0;whiteSpace=wrap;html=1;fontSize=16;align=center;fontStyle=1;fillColor=#f5f5f5;strokeColor=#666666;fontColor=#333333;" vertex="1" parent="hrqb3gGrcIVKY-zsB2rb-1">
          <mxGeometry x="570" y="360" width="210" height="40" as="geometry" />
        </mxCell>
        <mxCell id="mCidFeRhqzQsI7ztaqIR-14" style="edgeStyle=orthogonalEdgeStyle;rounded=0;orthogonalLoop=1;jettySize=auto;html=1;exitX=1;exitY=0.5;exitDx=0;exitDy=0;fontSize=16;" edge="1" parent="hrqb3gGrcIVKY-zsB2rb-1" source="mCidFeRhqzQsI7ztaqIR-8" target="mCidFeRhqzQsI7ztaqIR-0">
          <mxGeometry relative="1" as="geometry" />
        </mxCell>
        <mxCell id="mCidFeRhqzQsI7ztaqIR-8" value="Expiration Service" style="rounded=0;whiteSpace=wrap;html=1;fontSize=16;align=center;fontStyle=1;fillColor=#f5f5f5;strokeColor=#666666;fontColor=#333333;" vertex="1" parent="hrqb3gGrcIVKY-zsB2rb-1">
          <mxGeometry x="570" y="410" width="210" height="40" as="geometry" />
        </mxCell>
        <mxCell id="mCidFeRhqzQsI7ztaqIR-9" value="Common Module" style="rounded=0;whiteSpace=wrap;html=1;fontSize=16;align=center;fontStyle=1;fillColor=#f5f5f5;strokeColor=#666666;fontColor=#333333;" vertex="1" parent="hrqb3gGrcIVKY-zsB2rb-1">
          <mxGeometry x="850" y="160" width="275" height="40" as="geometry" />
        </mxCell>
      </root>
    </mxGraphModel>
  </diagram>
  <diagram name="12 - ts" id="tQWzIt2wbRErE9e6cxIu">
    <mxGraphModel dx="715" dy="352" grid="1" gridSize="10" guides="1" tooltips="1" connect="1" arrows="1" fold="1" page="1" pageScale="1" pageWidth="1920" pageHeight="1200" math="0" shadow="0">
      <root>
        <mxCell id="V-KVFbyLXcG0aCkHT06l-0" />
        <mxCell id="V-KVFbyLXcG0aCkHT06l-1" parent="V-KVFbyLXcG0aCkHT06l-0" />
        <mxCell id="V-KVFbyLXcG0aCkHT06l-2" value="" style="rounded=0;whiteSpace=wrap;html=1;fontSize=15;fillColor=#f5f5f5;strokeColor=#666666;fontColor=#333333;" vertex="1" parent="V-KVFbyLXcG0aCkHT06l-1">
          <mxGeometry x="850" y="200" width="275" height="310" as="geometry" />
        </mxCell>
        <mxCell id="V-KVFbyLXcG0aCkHT06l-3" value="Listing of Event Names (Subjects)" style="rounded=0;whiteSpace=wrap;html=1;fontSize=16;align=center;" vertex="1" parent="V-KVFbyLXcG0aCkHT06l-1">
          <mxGeometry x="896.25" y="220" width="180" height="60" as="geometry" />
        </mxCell>
        <mxCell id="V-KVFbyLXcG0aCkHT06l-4" value="Exact definition of &lt;b&gt;TicketCreated&lt;/b&gt; Event" style="rounded=0;whiteSpace=wrap;html=1;fontSize=16;align=center;" vertex="1" parent="V-KVFbyLXcG0aCkHT06l-1">
          <mxGeometry x="896.25" y="290" width="180" height="60" as="geometry" />
        </mxCell>
        <mxCell id="V-KVFbyLXcG0aCkHT06l-5" value="Exact definition of &lt;b&gt;TicketUpdated&lt;/b&gt; Event" style="rounded=0;whiteSpace=wrap;html=1;fontSize=16;align=center;" vertex="1" parent="V-KVFbyLXcG0aCkHT06l-1">
          <mxGeometry x="896.25" y="360" width="180" height="60" as="geometry" />
        </mxCell>
        <mxCell id="V-KVFbyLXcG0aCkHT06l-6" value="Exact definition of &lt;b&gt;OrderUpdated&lt;/b&gt; Event" style="rounded=0;whiteSpace=wrap;html=1;fontSize=16;align=center;" vertex="1" parent="V-KVFbyLXcG0aCkHT06l-1">
          <mxGeometry x="896.25" y="430" width="180" height="60" as="geometry" />
        </mxCell>
        <mxCell id="V-KVFbyLXcG0aCkHT06l-7" style="edgeStyle=orthogonalEdgeStyle;rounded=0;orthogonalLoop=1;jettySize=auto;html=1;exitX=1;exitY=0.5;exitDx=0;exitDy=0;fontSize=16;" edge="1" parent="V-KVFbyLXcG0aCkHT06l-1" source="V-KVFbyLXcG0aCkHT06l-8" target="V-KVFbyLXcG0aCkHT06l-2">
          <mxGeometry relative="1" as="geometry" />
        </mxCell>
        <mxCell id="V-KVFbyLXcG0aCkHT06l-8" value="Tickets Service" style="rounded=0;whiteSpace=wrap;html=1;fontSize=16;align=center;fontStyle=1;fillColor=#f5f5f5;strokeColor=#666666;fontColor=#333333;" vertex="1" parent="V-KVFbyLXcG0aCkHT06l-1">
          <mxGeometry x="570" y="260" width="210" height="40" as="geometry" />
        </mxCell>
        <mxCell id="V-KVFbyLXcG0aCkHT06l-9" style="edgeStyle=orthogonalEdgeStyle;rounded=0;orthogonalLoop=1;jettySize=auto;html=1;exitX=1;exitY=0.5;exitDx=0;exitDy=0;fontSize=16;" edge="1" parent="V-KVFbyLXcG0aCkHT06l-1" source="V-KVFbyLXcG0aCkHT06l-10" target="V-KVFbyLXcG0aCkHT06l-2">
          <mxGeometry relative="1" as="geometry" />
        </mxCell>
        <mxCell id="V-KVFbyLXcG0aCkHT06l-10" value="Orders Service" style="rounded=0;whiteSpace=wrap;html=1;fontSize=16;align=center;fontStyle=1;fillColor=#f5f5f5;strokeColor=#666666;fontColor=#333333;" vertex="1" parent="V-KVFbyLXcG0aCkHT06l-1">
          <mxGeometry x="570" y="310" width="210" height="40" as="geometry" />
        </mxCell>
        <mxCell id="V-KVFbyLXcG0aCkHT06l-11" style="edgeStyle=orthogonalEdgeStyle;rounded=0;orthogonalLoop=1;jettySize=auto;html=1;exitX=1;exitY=0.5;exitDx=0;exitDy=0;entryX=0;entryY=0.5;entryDx=0;entryDy=0;fontSize=16;" edge="1" parent="V-KVFbyLXcG0aCkHT06l-1" source="V-KVFbyLXcG0aCkHT06l-12" target="V-KVFbyLXcG0aCkHT06l-2">
          <mxGeometry relative="1" as="geometry" />
        </mxCell>
        <mxCell id="V-KVFbyLXcG0aCkHT06l-12" value="Payments Service" style="rounded=0;whiteSpace=wrap;html=1;fontSize=16;align=center;fontStyle=1;fillColor=#f5f5f5;strokeColor=#666666;fontColor=#333333;" vertex="1" parent="V-KVFbyLXcG0aCkHT06l-1">
          <mxGeometry x="570" y="360" width="210" height="40" as="geometry" />
        </mxCell>
        <mxCell id="V-KVFbyLXcG0aCkHT06l-13" style="edgeStyle=orthogonalEdgeStyle;rounded=0;orthogonalLoop=1;jettySize=auto;html=1;exitX=1;exitY=0.5;exitDx=0;exitDy=0;fontSize=16;" edge="1" parent="V-KVFbyLXcG0aCkHT06l-1" source="V-KVFbyLXcG0aCkHT06l-14" target="V-KVFbyLXcG0aCkHT06l-2">
          <mxGeometry relative="1" as="geometry" />
        </mxCell>
        <mxCell id="V-KVFbyLXcG0aCkHT06l-14" value="Expiration Service" style="rounded=0;whiteSpace=wrap;html=1;fontSize=16;align=center;fontStyle=1;fillColor=#f5f5f5;strokeColor=#666666;fontColor=#333333;" vertex="1" parent="V-KVFbyLXcG0aCkHT06l-1">
          <mxGeometry x="570" y="410" width="210" height="40" as="geometry" />
        </mxCell>
        <mxCell id="V-KVFbyLXcG0aCkHT06l-15" value="Common Module" style="rounded=0;whiteSpace=wrap;html=1;fontSize=16;align=center;fontStyle=1;fillColor=#f5f5f5;strokeColor=#666666;fontColor=#333333;" vertex="1" parent="V-KVFbyLXcG0aCkHT06l-1">
          <mxGeometry x="850" y="160" width="275" height="40" as="geometry" />
        </mxCell>
        <mxCell id="V-KVFbyLXcG0aCkHT06l-16" value="&lt;b&gt;Downside&lt;/b&gt;&lt;br&gt;This only works if all of our servers are written with Typescript!" style="rounded=0;whiteSpace=wrap;html=1;fontSize=16;align=center;fillColor=#f8cecc;strokeColor=#b85450;" vertex="1" parent="V-KVFbyLXcG0aCkHT06l-1">
          <mxGeometry x="550" y="170" width="260" height="70" as="geometry" />
        </mxCell>
      </root>
    </mxGraphModel>
  </diagram>
  <diagram name="13 - ts" id="v_VUOue42HW9Rtr4-2mJ">
    <mxGraphModel dx="715" dy="352" grid="1" gridSize="10" guides="1" tooltips="1" connect="1" arrows="1" fold="1" page="1" pageScale="1" pageWidth="1920" pageHeight="1200" math="0" shadow="0">
      <root>
        <mxCell id="vhQGs35oaSMSYyq2gn-T-0" />
        <mxCell id="vhQGs35oaSMSYyq2gn-T-1" parent="vhQGs35oaSMSYyq2gn-T-0" />
        <mxCell id="vhQGs35oaSMSYyq2gn-T-2" value="Apache Avro" style="rounded=0;whiteSpace=wrap;html=1;fontSize=19;fillColor=#f5f5f5;strokeColor=#666666;fontColor=#333333;" vertex="1" parent="vhQGs35oaSMSYyq2gn-T-1">
          <mxGeometry x="685" y="400" width="405" height="60" as="geometry" />
        </mxCell>
        <mxCell id="vhQGs35oaSMSYyq2gn-T-15" value="Alternatives with Cross Language Support" style="rounded=0;whiteSpace=wrap;html=1;fontSize=16;align=center;fontStyle=1;fillColor=#f5f5f5;strokeColor=#666666;fontColor=#333333;" vertex="1" parent="vhQGs35oaSMSYyq2gn-T-1">
          <mxGeometry x="685" y="200" width="405" height="40" as="geometry" />
        </mxCell>
        <mxCell id="vhQGs35oaSMSYyq2gn-T-17" value="Protobuf" style="rounded=0;whiteSpace=wrap;html=1;fontSize=19;fillColor=#f5f5f5;strokeColor=#666666;fontColor=#333333;" vertex="1" parent="vhQGs35oaSMSYyq2gn-T-1">
          <mxGeometry x="685" y="330" width="405" height="60" as="geometry" />
        </mxCell>
        <mxCell id="vhQGs35oaSMSYyq2gn-T-18" value="JSON Schema" style="rounded=0;whiteSpace=wrap;html=1;fontSize=19;fillColor=#f5f5f5;strokeColor=#666666;fontColor=#333333;" vertex="1" parent="vhQGs35oaSMSYyq2gn-T-1">
          <mxGeometry x="685" y="260" width="405" height="60" as="geometry" />
        </mxCell>
      </root>
    </mxGraphModel>
  </diagram>
</mxfile>
